<svg width="640" height="108" viewBox="0 0 640 108" fill="none" xmlns="http://www.w3.org/2000/svg">
  <path
    d="M343.609 49.2033C346.184 50.3477 348.044 51.0628 349.903 51.9211C360.345 57.0707 365.924 65.3674 365.924 76.9541C365.924 88.9699 360.489 98.2679 349.045 102.13C341.034 104.848 332.309 106.422 323.869 106.708C308.134 107.137 292.256 106.278 276.521 105.706C274.518 105.563 271.228 103.99 270.799 102.416C270.227 100.414 271.228 96.8374 272.945 95.55C280.097 90.1143 281.527 82.9621 281.241 74.5224C280.955 60.0748 281.098 45.6271 281.241 31.0365C281.241 24.8855 279.525 19.8789 274.518 16.1597C273.088 15.1584 271.8 13.728 270.942 12.2975C268.796 8.72141 270.37 5.28826 274.518 4.28694C275.376 4.1439 276.235 4.00083 277.093 4.00083C292.685 3.5717 308.42 2.71346 324.012 3.1426C331.164 3.28564 338.746 4.85911 345.183 7.57697C361.061 14.4432 362.491 35.6139 348.33 45.4841C346.756 46.6284 345.469 47.6298 343.609 49.2033ZM307.419 74.6654C307.419 78.8137 307.132 82.962 307.562 86.9673C307.848 89.113 309.135 91.9739 310.852 92.9752C315.858 95.8361 326.444 93.1183 330.306 88.5408C335.169 82.676 336.028 70.231 332.022 63.5078C328.589 57.786 321.151 55.2112 312.425 56.7847C308.992 57.3569 307.276 59.2165 307.276 62.7926C307.562 66.7979 307.419 70.6601 307.419 74.6654ZM307.562 30.3213C307.419 30.3213 307.419 30.3213 307.562 30.3213C307.562 34.0404 307.276 37.9027 307.705 41.6219C307.848 42.9093 309.564 45.3411 310.279 45.198C314.571 44.7689 319.434 44.7689 323.154 42.7662C328.875 39.4762 330.592 28.6047 327.588 21.1663C325.156 15.4445 319.721 12.8697 311.853 13.871C308.992 14.1571 307.705 15.5876 307.705 18.4485C307.419 22.4538 307.562 26.316 307.562 30.3213Z"
    fill="#FFFFFF" />
  <path
    d="M583.64 31.8947C583.64 39.4761 583.64 47.0576 583.64 54.782C583.64 56.0694 584.498 57.3569 584.927 58.7874C586.215 58.2152 587.645 57.929 588.647 56.9277C591.794 54.0668 594.798 51.0629 597.658 47.9159C599.375 46.0563 600.376 44.0536 596.943 42.4801C595.656 41.908 594.225 39.4762 594.511 38.1888C594.798 36.7583 596.8 34.8987 598.231 34.7556C602.379 34.0404 606.67 34.0404 610.962 34.0404C615.968 34.0404 620.975 34.0405 625.839 34.1835C628.986 34.3266 631.131 35.757 631.131 39.1901C631.131 42.6232 629.415 44.9119 625.982 45.0549C619.401 45.198 614.824 48.6311 610.533 53.2086C608.673 55.2112 608.244 57.0708 609.817 59.3595C616.684 69.6588 623.264 79.9581 630.273 90.1143C631.56 92.117 633.849 93.5474 635.852 94.8348C638.283 96.5514 641.001 98.5541 639.571 101.415C638.57 103.561 635.709 105.849 633.563 105.992C624.265 106.422 614.824 106.422 605.526 105.849C600.805 105.563 599.804 102.559 601.378 97.9818C602.093 95.8362 602.093 92.6892 601.092 90.8296C598.803 86.2521 595.799 82.1038 592.795 77.9555C591.937 76.668 589.648 74.9515 588.933 75.2376C587.073 76.0959 584.784 77.8125 584.498 79.529C582.925 86.6813 583.497 92.26 590.22 95.8362C592.795 97.1236 594.512 98.9832 593.939 102.13C593.367 105.42 590.649 106.135 587.931 106.135C576.345 106.279 564.758 106.279 553.314 106.135C550.453 106.135 547.163 105.277 547.163 101.844C547.163 99.8415 549.166 97.1236 551.026 95.8362C555.031 93.1183 556.747 89.5422 556.747 85.1077C556.89 65.5105 556.89 45.9133 556.89 26.316C556.89 22.7398 555.46 20.308 551.455 19.3067C549.738 18.8776 547.306 16.7319 547.163 15.3015C547.163 13.728 549.166 11.1531 550.739 10.581C558.75 7.8631 566.761 5.14518 575.057 3.28558C581.351 1.85512 583.64 4.43002 583.64 10.8671C583.64 17.8763 583.64 24.8855 583.64 31.8947Z"
    fill="#FFFFFF" />
  <path
    d="M33.629 4.00081C40.3521 4.00081 47.0753 4.28693 53.7984 3.8578C58.5189 3.57171 63.2395 2.57037 67.8169 1.426C72.3944 0.281636 75.5414 0.710826 77.2579 5.14524C80.4049 13.0128 82.8367 21.1664 85.4115 29.1769C85.5546 29.7491 85.5546 30.3213 85.5546 30.8935C85.6976 34.3266 85.4115 37.6166 81.5493 38.761C77.8301 39.9054 74.8262 38.1888 72.9666 35.0418C70.9639 31.7517 69.5335 28.3186 68.103 24.7424C65.6712 18.5915 61.3799 16.1597 54.7997 16.1597C40.066 16.1597 40.066 15.8736 40.066 30.7504C40.066 35.3279 40.066 39.7623 40.066 44.3397C40.066 49.3463 43.7852 48.202 46.6461 48.345C49.5071 48.488 52.0819 47.9159 51.7958 44.0536C51.7958 43.0523 51.3666 41.908 51.6527 41.0497C52.2249 39.1901 52.9402 36.1861 53.9415 36.0431C56.2302 35.757 58.9481 36.4722 61.0938 37.4736C62.2381 38.0457 63.0964 40.0484 63.5255 41.4788C65.8143 49.2033 68.103 56.9278 70.1056 64.6522C70.8209 67.3701 70.9639 70.5171 67.2447 71.5184C63.6686 72.3767 60.2355 71.9476 58.9481 67.9423C56.3733 60.3609 52.0819 60.5039 45.7879 60.647C42.2117 60.79 40.3521 62.5066 40.2091 66.0827C40.066 71.0893 40.066 76.0959 40.3521 80.9595C40.4952 85.3939 43.213 88.3979 46.7892 90.9727C48.9349 92.4032 51.2236 93.8336 52.9402 95.8362C56.3733 99.8415 54.7997 104.133 49.7931 105.277C48.2196 105.706 46.6461 105.706 45.0726 105.849C33.0568 105.849 21.0409 105.993 9.0251 105.706C6.45028 105.706 2.87413 104.419 1.58672 102.559C-0.415918 99.4124 2.01586 96.4084 4.73373 94.4058C10.1695 90.1144 12.0291 84.6787 12.0291 77.8125C11.886 62.5066 11.886 47.0576 12.0291 31.7517C12.1721 25.1716 10.3125 19.7359 4.73373 15.7306C3.73241 15.0154 3.01718 14.1571 2.30195 13.2988C-0.70201 9.15046 0.871493 5.14524 6.02114 4.43002C8.59596 4.00088 11.3138 4.14391 13.8887 4.14391C20.4688 4.00086 27.0489 4.00081 33.629 4.00081Z"
    fill="#FFFFFF" />
  <path
    d="M428.864 93.6906C428.292 94.4058 427.577 95.2641 427.005 95.9794C419.423 106.708 406.549 110.713 394.533 105.563C385.665 101.844 381.945 94.4058 381.373 85.3939C380.801 76.6681 381.087 67.7992 381.087 59.0734C381.087 54.2099 380.372 50.0616 374.507 48.9172C373.22 48.6311 371.36 46.7715 371.217 45.4841C371.074 44.1967 372.504 41.7649 373.792 41.3358C382.947 38.3318 392.102 35.3278 401.4 33.1822C405.977 32.1808 407.837 34.7556 407.837 39.7622C407.837 51.2059 407.837 62.6496 407.837 73.9502C407.837 76.0959 407.98 78.3846 408.266 80.5303C408.695 84.3926 410.125 87.6827 414.274 88.8271C418.565 89.9714 422.999 89.2561 425.288 85.5369C427.72 81.5317 429.293 76.8111 430.009 72.2337C430.867 67.2271 430.295 62.0774 430.152 56.9277C430.152 53.0655 428.864 50.2046 424.43 49.3463C422.856 49.0602 420.568 46.9145 420.425 45.4841C420.282 44.0536 422.141 41.4789 423.572 40.9067C432.154 38.0457 440.737 35.1848 449.463 33.1822C454.756 32.0378 456.758 34.6126 456.758 40.1914C456.758 53.6378 456.758 67.084 456.758 80.5303C456.758 85.5369 457.187 89.9714 463.624 90.9728C464.769 91.1158 466.628 92.9753 466.628 94.1197C466.628 95.5502 465.627 97.8389 464.34 98.4111C455.328 102.845 446.03 106.422 435.874 106.565C432.011 106.708 429.866 104.705 430.009 100.557C430.152 98.268 430.009 95.9793 430.009 93.6906C429.866 93.8336 429.293 93.6906 428.864 93.6906Z"
    fill="#FFFFFF" />
  <path
    d="M133.332 95.8362C132.617 96.2653 132.188 96.5514 131.758 96.9805C122.46 108.996 109.729 109.426 96.7122 106.279C82.2646 102.702 77.4011 84.8217 87.2712 73.6641C93.8513 66.3688 102.577 63.937 111.875 62.5065C115.165 62.0774 118.598 61.6483 121.888 61.0761C125.035 60.5039 126.18 58.5013 125.751 55.3543C125.464 53.9238 125.321 52.4933 125.035 51.0629C124.177 47.6298 122.89 44.6258 118.741 44.1967C114.45 43.7676 110.874 44.912 108.728 48.7742C108.013 50.2046 107.441 51.7781 107.012 53.2086C105.152 58.3582 101.576 60.933 95.997 60.79C90.5613 60.6469 87.1282 56.4986 87.8434 51.0629C88.7017 45.7702 91.7056 41.908 96.1401 39.1901C109.3 31.4656 123.462 29.8921 137.909 34.3265C146.206 36.9013 150.068 43.7676 151.499 51.7781C153.215 61.6483 154.503 71.6615 155.933 81.6747C156.935 88.6839 157.364 89.1131 164.087 87.8257C167.234 87.2535 168.378 88.827 168.378 91.6879C168.521 96.9806 163.944 102.988 157.793 105.42C148.352 109.139 139.769 106.135 134.762 97.2666C134.333 96.9805 133.761 96.5514 133.332 95.8362ZM128.898 80.2443C128.898 72.6628 127.181 70.6602 120.887 70.6602C113.306 70.6602 109.3 74.6654 109.3 82.2468C109.3 88.8269 112.876 92.8322 118.741 92.9753C125.035 93.1183 129.041 88.1118 128.898 80.2443Z"
    fill="#FFFFFF" />
  <path
    d="M177.676 67.9423C177.676 62.2205 177.533 56.4987 177.676 50.7768C177.819 47.2007 176.389 45.3412 172.669 45.1981C168.092 44.912 166.232 42.3372 168.092 38.1888C169.952 34.1836 172.813 30.4644 175.673 27.0313C180.966 20.8803 186.831 15.4446 194.985 13.1558C202.423 11.0102 204.283 12.5837 204.283 20.1651C204.283 23.026 204.426 26.03 204.283 28.8909C204.14 32.467 205.57 34.3266 209.432 34.0405C213.581 33.8974 217.586 34.0405 221.734 34.0405C224.309 34.0405 227.17 33.6113 227.456 37.6166C227.599 41.7649 225.453 44.912 221.877 45.055C218.301 45.3411 214.582 45.0551 210.863 45.1981C205.57 45.3412 204.426 46.4855 204.283 51.6352C204.283 60.361 204.283 69.2297 204.283 77.9555C204.283 82.1039 204.855 86.3953 209.146 88.5409C213.724 90.8297 218.015 89.2562 221.877 86.6814C222.592 86.2522 223.165 85.2509 223.88 85.1078C225.31 84.6787 227.17 83.8204 228.171 84.3926C229.173 84.9648 229.888 87.1104 229.602 88.3978C228.028 96.9806 223.022 102.989 214.582 105.706C207.287 108.138 199.991 108.281 192.553 106.136C184.685 103.99 179.679 98.8402 178.534 90.9727C177.39 83.3913 177.533 75.5238 177.104 67.7993C177.39 67.9424 177.533 67.9423 177.676 67.9423Z"
    fill="#FFFFFF" />
  <path
    d="M497.956 61.7915C498.957 66.7981 499.386 71.2325 500.53 75.3809C504.679 89.1133 516.981 94.1198 529.712 87.2536C531.428 86.2523 532.859 84.6789 534.718 83.8206C536.435 82.9623 538.581 82.8193 540.44 82.3901C540.726 84.3928 541.871 86.6814 541.298 88.398C538.581 97.4099 532 102.846 523.418 105.707C513.977 108.854 504.393 108.711 494.952 105.42C477.071 99.2695 467.487 81.5318 471.635 62.0776C475.354 44.483 492.377 31.3227 510.114 32.6101C518.554 33.1823 526.851 35.185 533.002 41.336C536.006 44.3399 538.295 48.6313 539.582 52.7796C540.869 56.6419 539.725 60.6471 535.577 62.9359C532.144 64.7955 526.708 63.9372 523.847 60.7902C522.273 59.0736 521.129 56.928 519.985 54.9253C518.697 52.7796 517.982 50.3478 516.552 48.3452C511.831 41.9081 503.391 42.6234 500.387 49.9187C498.957 53.781 498.671 58.0723 497.956 61.7915Z"
    fill="#FFFFFF" />
</svg>