<?xml version="1.0" encoding="utf-8"?>
<!-- Generator: Adobe Illustrator 19.2.0, SVG Export Plug-In . SVG Version: 6.00 Build 0)  -->
<svg version="1.1" id="Layer_1" xmlns="http://www.w3.org/2000/svg" xmlns:xlink="http://www.w3.org/1999/xlink" x="0px" y="0px"
	 viewBox="0 0 454.8 585.2" style="enable-background:new 0 0 454.8 585.2;" xml:space="preserve">
<style type="text/css">
	.st0{fill:#79410D;}
	.st1{fill:#462507;}
	.st2{opacity:0.2;}
	.st3{fill:#64360C;}
	.st4{fill:#8C4C0F;}
	.st5{fill:#67370C;}
	.st6{fill:#CD9973;}
	.st7{fill:#FAF9F9;}
	.st8{fill:#E9D59C;}
	.st9{fill:#B5851B;}
	.st10{fill:#D9A01F;}
	.st11{fill:#F7D387;}
	.black{fill:#0A1C21}
</style>
<g>
	<g>
		<path class="st0" d="M97.3,231.3l0.4,39.6l-39.6,0.4c-21.6,0.2-39.4-17.1-39.6-38.7l-0.4-33.3c0-3.5,2.7-6.3,6.2-6.3l33.3-0.4
			C79.4,192.4,97.1,209.7,97.3,231.3z"/>
		<path class="st1" d="M82.8,231.6l0.3,25l-25,0.3c-13.7,0.1-24.8-10.8-25-24.5l-0.2-21c0-2.2,1.7-4,3.9-4l21-0.2
			C71.5,207,82.7,217.9,82.8,231.6z"/>
		<path class="st0" d="M356.1,231.3l-0.4,39.6l39.6,0.4c21.6,0.2,39.4-17.1,39.6-38.7l0.4-33.3c0-3.5-2.7-6.3-6.2-6.3l-33.3-0.4
			C374,192.4,356.3,209.7,356.1,231.3z"/>
		<path class="st1" d="M369.5,231.6l-0.3,25l25,0.3c13.7,0.1,24.8-10.8,25-24.5l0.2-21c0-2.2-1.7-4-3.9-4l-21-0.2
			C380.8,207,369.6,217.9,369.5,231.6z"/>
		<ellipse class="st2" cx="220.2" cy="553.8" rx="207.1" ry="31.4"/>
		<path class="st0" d="M219.2,542.9l8,2.6c74.6,0,135.4-56.2,135.4-130.8V293.2c0-74.6-60.5-135.1-135.1-135.1h0
			c-74.6,0-135.1,60.5-135.1,135.1v121.4C92.3,489.3,144.5,542.9,219.2,542.9z"/>
		<path class="st3" d="M303.4,298.9L254,283.4c-6.4-2-10-8.9-8-15.3l4.5-14.4c2-6.4,8.8-10,15.3-8l49.3,15.4c6.4,2,10,8.9,8,15.3
			l-4.5,14.4C316.6,297.3,309.8,300.9,303.4,298.9z"/>
		<ellipse class="st4" cx="227.3" cy="178.7" rx="52.2" ry="20.1"/>
		<path class="st0" d="M320,548.6H134.1C69.4,548.6,17,496.2,17,431.6v0c0-64.7,52.4-117.1,117.1-117.1H320
			c64.7,0,117.1,52.4,117.1,117.1v0C437.1,496.2,384.7,548.6,320,548.6z"/>
		<path class="st4" d="M306.6,491.2H147.5c-45.7,0-82.7-37-82.7-82.7v-3.6c0-45.7,37-82.7,82.7-82.7h159.2c45.7,0,82.7,37,82.7,82.7
			v3.6C389.3,454.2,352.3,491.2,306.6,491.2z"/>
		<path class="st5" d="M233.8,410l-13.7,0c-22,0-39.9,17.8-39.9,39.8l0,27.4c0,22,17.8,39.9,39.8,39.9l13.7,0
			c22,0,39.9-17.8,39.9-39.8l0-27.4C273.6,427.9,255.8,410.1,233.8,410z"/>
		<ellipse class="st6" cx="225.7" cy="466.6" rx="41.4" ry="32.9"/>
		<circle class="st5" cx="269.5" cy="347.1" r="46.1"/>
		<circle class="st5" cx="181.2" cy="347.1" r="46.1"/>
		<circle class="st7" cx="181" cy="332.2" r="46.1"/>
		<circle class='black' cx="179.8" cy="332.2" r="27.8"/>
		<circle class="st7" cx="197.6" cy="314.4" r="10"/>
		<circle class="st7" cx="269.5" cy="332.2" r="46.1"/>
		<circle class='black' cx="270.6" cy="332.2" r="27.8"/>
		<circle class="st7" cx="288.4" cy="314.4" r="10"/>
		<path class='black' d="M188.4,292.4l-36.2,5.6c-10.8,1.7-20.8-5.7-22.5-16.5l0,0c-1.7-10.8,5.7-20.8,16.5-22.5l36.2-5.6
			c10.8-1.7,20.8,5.7,22.5,16.5l0,0C206.5,280.6,199.1,290.7,188.4,292.4z"/>
		<path class='black' d="M296.2,274.5l-35-10.9c-10.4-3.3-16.2-14.3-12.9-24.7l0,0c3.3-10.4,14.3-16.2,24.7-12.9l35,10.9
			c10.4,3.3,16.2,14.3,12.9,24.7l0,0C317.6,272,306.6,277.8,296.2,274.5z"/>
		<path class="st6" d="M183.2,464c6,4.6,10.9,6,17.8,4.9c8.6-1.4,16.9-4.5,25.6-5.3c8.3-0.8,16.5,1.3,24.6,2.7
			c6,1.1,9.9,1.4,14.5-3.4c5.6-5.8,12.8-4.4,17.3-0.1c25.4-32.9,18.7-79.4-19.9-105.1c-11.8-7.8-24.4-12.3-37.5-12.3
			s-25.7,4.5-37.5,12.3c-39.3,26.2-45.5,73.9-18.5,106.8C173.6,461.8,179.2,461,183.2,464z"/>
		<path class="st7" d="M244.7,481.8h-35.5c-5.1,0-9.2-4.1-9.2-9.2v-26.7c0-5.1,4.1-9.2,9.2-9.2h35.5c5.1,0,9.2,4.1,9.2,9.2v26.7
			C254,477.7,249.8,481.8,244.7,481.8z"/>
		<g>
			<path class="st8" d="M121,86.6V20.8c0-10.8-8.8-19.6-19.6-19.6c-10.8,0-19.6,8.8-19.6,19.6v65.6h-8.6
				c-18.6,0-33.8-15.2-33.8-33.8V21.8c0-10.8-8.8-19.6-19.6-19.6C8.8,2.2,0,11,0,21.8v30.7c0,40.3,32.8,73.1,73.1,73.1h41.8
				c18.6,0,33.8,15.2,33.8,33.8v19.5c0,10.8,8.8,19.6,19.6,19.6c10.8,0,19.6-8.8,19.6-19.6v-19.5C188,121.2,158.4,89.8,121,86.6z"/>
			<path class="st8" d="M435.2,1.1c-10.8,0-19.6,8.8-19.6,19.6v30.7c0,18.6-15.2,33.8-33.8,33.8h-8.6V19.6
				c0-10.8-8.8-19.6-19.6-19.6c-10.8,0-19.6,8.8-19.6,19.6v65.9c-37.4,3.1-67,34.6-67,72.8v19.5c0,10.8,8.8,19.6,19.6,19.6
				c10.8,0,19.6-8.8,19.6-19.6v-19.5c0-18.6,15.2-33.8,33.8-33.8h41.8c40.3,0,73.1-32.8,73.1-73.1V20.7C454.8,9.8,446,1.1,435.2,1.1
				z"/>
		</g>
		<ellipse class="st6" cx="196.4" cy="436" rx="35.3" ry="31.7"/>
		<ellipse class="st6" cx="254.8" cy="436" rx="35.3" ry="31.7"/>
		<path class='black' d="M186,412.9c0,14.2,17.7,42.6,39.6,42.6c21.9,0,39.6-28.4,39.6-42.6c0-14.2-17.7-25.6-39.6-25.6
			C203.7,387.3,186,398.7,186,412.9z"/>
		<g>
			<path class='black' d="M196.6,474.2c-8.5,0-17.8-2.7-27.3-9.9c-2.8-2.1-3.3-6.1-1.2-8.8c2.1-2.8,6.1-3.3,8.8-1.2c23.3,17.8,42-2.2,42.8-3
				c2.4-2.6,6.3-2.7,8.9-0.4c2.6,2.4,2.7,6.3,0.4,8.9C223.2,466.2,211.2,474.2,196.6,474.2z"/>
		</g>
		<g>
			<path class='black' d="M254,474.2c-8.5,0-17.8-2.7-27.3-9.9c-2.8-2.1-3.3-6.1-1.2-8.8c2.1-2.8,6.1-3.3,8.8-1.2c23.3,17.8,42-2.2,42.8-3
				c2.4-2.6,6.3-2.7,8.9-0.4c2.6,2.4,2.7,6.3,0.4,8.9C280.6,466.2,268.6,474.2,254,474.2z"/>
		</g>
		<ellipse class="st7" cx="234.7" cy="409.2" rx="6.2" ry="3.6"/>
		<polygon class="st0" points="378.3,361.7 340.1,344.9 382.9,392.3 347.7,379.3 390.6,427.5 398.2,391.6 		"/>
		<polygon class="st0" points="76.1,361.7 114.3,344.9 71.5,392.3 106.7,379.3 63.8,427.5 56.2,391.6 		"/>
		<path class="st0" d="M185.5,191.9c0,0,28.1-4.1,48-30.1l-9.8,32.4c0,0,20.3-6.4,36.4-29.1c0,0,7.2,27.7-20.3,38.3
			c-16.1,6.2-58.2,0-58.2,0L185.5,191.9z"/>
	</g>
	<g>
		<path class="st9" d="M195.5,568l0.1-20.5l-39.9,8.9c-7.4-0.6-15.5-1-24.1-1c-8.6,0-16.7,0.4-24.2,1l-39.9-8.9l0.1,21.3
			c0,7.4,28.7,13.4,64.1,13.4c35.4,0,64.1-6,64.1-13.4C195.7,568.6,195.6,568.3,195.5,568z"/>
		<ellipse class="st10" cx="131.7" cy="547.8" rx="64.1" ry="13.4"/>
	</g>
	<g>
		<path class="st9" d="M157.4,542.9c0,0,0-0.1,0.1-0.1c-0.4-0.1-0.8-0.2-1.2-0.3l0,0c0-0.1,0-0.1,0-0.2c0-0.1,0-0.1,0-0.2
			c0-0.1,0-0.1,0-0.2c0-0.1,0-0.1,0-0.2c0-0.1,0-0.1,0-0.2c0-0.1,0-0.1,0-0.2c0-0.1,0-0.1,0-0.2c0-0.1,0-0.1,0-0.2
			c0-0.1,0-0.1,0-0.2c0-0.1,0-0.1,0-0.2c0-0.1,0-0.1,0-0.2c0-0.1,0-0.1,0-0.2c0-0.1,0-0.1,0-0.2c0-0.1,0-0.1,0-0.2
			c0-0.1,0-0.1,0-0.2c0-0.1,0-0.1,0-0.2c0-0.1,0-0.1,0-0.2c0-0.1,0-0.1,0-0.2c0-0.1,0-0.1,0-0.2c0-0.1,0-0.1,0-0.2
			c0-0.1,0-0.1,0-0.2c0-0.1,0-0.1,0-0.2c0-0.1,0-0.1,0-0.2c0-0.1,0-0.1,0-0.2c0-0.1,0-0.1,0-0.2c0-0.1,0-0.1,0-0.2
			c0-0.1,0-0.1,0-0.2c0-0.1,0-0.1,0-0.2c0-0.1,0-0.1,0-0.2c0-0.1,0-0.1,0-0.2c0-0.1,0-0.1,0-0.2c0-0.1,0-0.1,0-0.2
			c0-0.1,0-0.1,0-0.2c0-0.1,0-0.1,0-0.2c0-0.1,0-0.1,0-0.2c0-0.1,0-0.1,0-0.2c0-0.1,0-0.1,0-0.2c0.4-2-4.5-3.9-11.2-4
			c-2.3,0-4.6,0.2-7.1,0.3c0,0,0,0,0,0c0-0.1,0-0.1,0-0.2c0-0.1,0-0.1,0-0.2c0-0.1,0-0.1,0-0.2c0-0.1,0-0.1,0-0.2c0-0.1,0-0.1,0-0.2
			c0-0.1,0-0.1,0-0.2c0-0.1,0-0.1,0-0.2c0-0.1,0-0.1,0-0.2c0-0.9-1-1.8-3.6-2.4c-3.1-0.8-6.7-1.1-10.3-0.5c-2.6,0.4-5,1-7.4,1.5
			c-1.2,0.3-2,0.4-3.2,0c-1.6-0.5-3.4-0.9-5-1.4c-1.1-0.3-2-0.4-3.1,0c-0.7,0.3-1.9,0.5-1.7,0.9c0,0,0,0.1,0,0.2c0,0,0,0.1,0,0.2
			c0,0,0,0.1,0,0.2c0,0,0,0.1,0,0.2c0,0,0,0.1,0,0.2c0,0,0,0.1,0,0.2c0,0,0,0.1,0,0.2c0,0,0,0.1,0,0.2c0,0,0,0.1,0,0.2
			c0,0,0,0.1,0,0.2c0,0,0,0.1,0,0.2c0,0,0,0.1,0,0.2c0,0,0,0.1,0,0.2c0,0,0,0.1,0,0.2c0,0,0,0.1,0,0.2c0,0,0,0.1,0,0.2
			c0,0,0,0.1,0,0.2c0,0,0,0.1,0,0.1c-1-0.3-2.1-0.6-3.1-0.9c-1.1-0.4-2.1-0.5-3.3,0c-0.7,0.3-1.9,0.5-1.7,0.9c0,0,0,0.1,0,0.2
			c0,0,0,0.1,0,0.2c0,0,0,0.1,0,0.2c0,0,0,0.1,0,0.2c0,0,0,0.1,0,0.2c0,0,0,0.1,0,0.2c0,0,0,0.1,0,0.2c0,0,0,0.1,0,0.2
			c0,0,0,0.1,0,0.2c0,0,0,0.1,0,0.2c0,0,0,0.1,0,0.2c0,0,0,0.1,0,0.2c0,0,0,0.1,0,0.2c0,0,0,0.1,0,0.2c0,0,0,0.1,0,0.2
			c0,0,0,0.1,0,0.2c0,0,0,0.1,0,0.2c0,0,0,0.1,0,0.2c0,0,0,0.1,0,0.2c0,0,0,0.1,0,0.2c0,0,0,0.1,0,0.2c0,0,0,0.1,0,0.2
			c0,0.1,0,0.1,0,0.2c0,0.1,0,0.1,0,0.2c0,0.1,0,0.1,0,0.2c0,0.1,0,0.1,0,0.2c0,0.1,0,0.1,0,0.2c0,0,0,0.1,0,0.2c0,0,0,0.1,0,0.2
			c0,0,0,0.1,0,0.2c0,0,0,0.1,0,0.2c0,0,0,0.1,0,0.2c0,0,0,0,0,0.1c0,0,0,0.1,0,0.1c0,0,0,0,0,0c0,0,0,0.1,0,0.1c0,0,0,0,0,0
			c0,0,0,0.1,0,0.1c0,0,0,0,0,0c0,0,0,0.1,0,0.1c0,0,0,0,0,0c0,0,0,0.1,0,0.1c0,0,0,0,0,0c0,0,0,0.1,0,0.1c0,0,0,0,0,0
			c0,0,0,0.1,0,0.1c0,0,0,0,0,0c0,0,0,0.1,0,0.1c0,0,0,0,0,0c0,0,0,0.1,0,0.1c0,0,0,0,0,0c0,0,0,0.1,0,0.1c0,0,0,0,0,0
			c0,0,0,0.1,0,0.1c0,0,0,0,0,0c0,0,0,0.1,0,0.1c0,0,0,0,0,0c0,0,0,0.1,0,0.1c0,0,0,0,0,0c0,0,0,0.1,0,0.1c0,0,0,0,0,0
			c0,0,0,0.1,0,0.1c0,0,0,0,0,0c0,0,0,0.1,0,0.1c0,0,0,0,0,0c0,0,0,0.1,0,0.1c0,0,0,0,0,0c0,0,0,0.1,0,0.1c0,0,0,0,0,0
			c0,0,0,0.1,0,0.1c0,0,0,0,0,0c0,0,0,0.1,0,0.1c0,0,0,0,0,0c0,0,0,0.1,0,0.1c0,0,0,0,0,0c0,0,0,0.1,0,0.1c0,0,0,0,0,0
			c0,0,0,0.1,0,0.1c0,0,0,0,0,0c0,0,0,0.1,0,0.1c0,0,0,0,0,0c0,0,0,0.1,0,0.1c0,0,0,0,0,0c0,0,0,0.1,0,0.1c0,0.1,0,0.1,0,0.2
			c0,0.1,0,0.1,0,0.2c0,0.1,0,0.1,0,0.2c0,0.1,0,0.1,0,0.2c0,0.1,0,0.1,0,0.2c0,0.1,0,0.1,0,0.2c0,0.1,0,0.1,0,0.2
			c0,0.1,0,0.1,0,0.2c0,0.1,0,0.1,0,0.2c0,0.1,0,0.1,0,0.2c0,0.1,0,0.1,0,0.2c0,0.1,0,0.1,0,0.2c0,0.1,0,0.1,0,0.2
			c0,0.1,0,0.1,0,0.2c0,0.1,0,0.1,0,0.2c0,0.1,0,0.1,0,0.2c0,0.1,0,0.1,0,0.2c0,0.1,0,0.1,0,0.2c0,0.1,0,0.1,0,0.2
			c0,0.1,0,0.1,0,0.2c0,0.1,0,0.1,0,0.2c0,0.1,0,0.1,0,0.2c0,0.1,0,0.1,0,0.2c0,0.1,0,0.1,0,0.2c0,0.1,0,0.1,0,0.2
			c0,0.1,0,0.1,0,0.2c0,0.1,0,0.1,0,0.2c0,0.1,0,0.1,0,0.2c0,0.1,0,0.1,0,0.2c0,0.1,0,0.1,0,0.2c0,0.1,0,0.1,0,0.2
			c0,0.1,0,0.1,0,0.2c-0.1,0.2,0.2,0.4,1,0.7c2.7,0.8,2.6,0.8,5.1,0c0.4-0.1,0.9-0.3,1.3-0.4c1.2-0.4,2.2-0.4,3.6,0
			c6.1,1.7,12.2,3.4,18.3,5.2c0,0,0,0.1,0,0.1c0,0.1,0,0.1,0,0.2c0,0.1,0,0.1,0,0.2c0,0.1,0,0.1,0,0.2c0,0.1,0,0.1,0,0.2
			c0,0.1,0,0.1,0,0.2c0,0.1,0,0.1,0,0.2c0,0.1,0,0.1,0,0.2c0,0.1,0,0.1,0,0.2c0,0.1,0,0.1,0,0.2c0,0.1,0,0.1,0,0.2
			c0,0.1,0,0.1,0,0.2c0,0.1,0,0.1,0,0.2c0,0.1,0,0.1,0,0.2c0,0.1,0,0.1,0,0.2c0,0.1,0,0.1,0,0.2c0,0.1,0,0.1,0,0.2
			c0,0.1,0,0.1,0,0.2c0,0.1,0,0.1,0,0.2c-0.2,0.3,0.5,0.5,2.3,1c0.1,0,0.1,0,0.2,0c1,0.4,1.9,0.3,2.9-0.1c1.8-0.6,3.9-1.2,5.7-1.8
			c1.1-0.4,2-0.4,3.2,0c1.3,0.4,2.6,0.8,3.9,1.2c2.8,0.8,3.1,0.8,5.5-0.1c0.3-0.1,0.5-0.2,0.8-0.3c-0.1,0-0.1-0.1-0.2-0.1
			c0,0,0.1,0,0.2-0.1c-0.1,0-0.1-0.1-0.2-0.1c0,0,0.1,0,0.2-0.1c-0.1,0-0.1-0.1-0.2-0.1c0,0,0.1,0,0.2-0.1c-0.1,0-0.1-0.1-0.2-0.1
			c0,0,0.1,0,0.2-0.1c-0.1,0-0.1-0.1-0.2-0.1c0,0,0.1,0,0.2-0.1c-0.1,0-0.1-0.1-0.2-0.1c0,0,0.1,0,0.2-0.1c-0.1,0-0.1-0.1-0.2-0.1
			c0,0,0.1,0,0.2-0.1c-0.1,0-0.1-0.1-0.2-0.1c0,0,0.1,0,0.2-0.1c-0.1,0-0.1-0.1-0.2-0.1c0,0,0.1,0,0.2-0.1c-0.1,0-0.1-0.1-0.2-0.1
			c0,0,0.1,0,0.2-0.1c-0.1,0-0.1-0.1-0.2-0.1c0,0,0.1,0,0.2-0.1c-0.1,0-0.1-0.1-0.2-0.1c0,0,0.1,0,0.2-0.1c-0.1,0-0.1-0.1-0.2-0.1
			c0,0,0.1,0,0.2-0.1c-0.1,0-0.1-0.1-0.2-0.1c0,0,0.1,0,0.2-0.1c-0.1,0-0.1-0.1-0.2-0.1c0,0,0.1,0,0.2-0.1c-0.1,0-0.1-0.1-0.2-0.1
			c0,0,0.1,0,0.2-0.1c-0.1,0-0.1-0.1-0.2-0.1c0,0,0.1,0,0.2-0.1c-0.1,0-0.1-0.1-0.2-0.1l0,0c0.6,0.2,1.1,0.3,1.7,0.5
			c3.4,0.9,3.8,0.9,6.3-0.3c0.1,0,0.1-0.1,0.2-0.2c0,0-0.1,0-0.1,0c0,0,0-0.1,0.1-0.1c0,0-0.1,0-0.1,0c0,0,0-0.1,0.1-0.1
			c0,0-0.1,0-0.1,0c0,0,0-0.1,0.1-0.1c0,0-0.1,0-0.1,0c0,0,0-0.1,0.1-0.1c0,0-0.1,0-0.1,0c0,0,0-0.1,0.1-0.1c0,0-0.1,0-0.1,0
			c0,0,0-0.1,0.1-0.1c0,0-0.1,0-0.1,0c0,0,0-0.1,0.1-0.1c0,0-0.1,0-0.1,0c0,0,0-0.1,0.1-0.1c0,0-0.1,0-0.1,0c0,0,0-0.1,0.1-0.1
			c0,0-0.1,0-0.1,0c0,0,0-0.1,0.1-0.1c0,0-0.1,0-0.1,0c0,0,0-0.1,0.1-0.1c0,0-0.1,0-0.1,0c0,0,0-0.1,0.1-0.1c0,0-0.1,0-0.1,0
			c0,0,0-0.1,0.1-0.1c0,0-0.1,0-0.1,0c0,0,0-0.1,0.1-0.1c0,0-0.1,0-0.1,0c0,0,0-0.1,0.1-0.1c0,0-0.1,0-0.1,0c0,0,0-0.1,0.1-0.1
			c0,0-0.1,0-0.1,0c0,0,0-0.1,0.1-0.1c0,0-0.1,0-0.1,0c0,0,0-0.1,0.1-0.1c0,0-0.1,0-0.1,0c0,0,0-0.1,0.1-0.1c0,0-0.1,0-0.1,0
			c0,0,0-0.1,0.1-0.1c0,0-0.1,0-0.1,0c0,0,0-0.1,0.1-0.1c0,0-0.1,0-0.1,0c0,0,0-0.1,0.1-0.1c0,0-0.1,0-0.1,0c0,0,0-0.1,0.1-0.1
			c0,0-0.1,0-0.1,0c0,0,0-0.1,0.1-0.1c0,0-0.1,0-0.1,0c0,0,0-0.1,0.1-0.1c0,0-0.1,0-0.1,0c0,0,0-0.1,0.1-0.1c0,0-0.1,0-0.1,0
			c0,0,0-0.1,0.1-0.1c0,0-0.1,0-0.1,0c0,0,0-0.1,0.1-0.1c0,0-0.1,0-0.1,0c0,0,0-0.1,0.1-0.1c0,0-0.1,0-0.1,0c0,0,0-0.1,0.1-0.1
			c0,0-0.1,0-0.1,0c0,0,0-0.1,0.1-0.1c0,0-0.1,0-0.1,0c0,0,0-0.1,0.1-0.1c0,0-0.1,0-0.1,0c0,0,0-0.1,0.1-0.1c0,0-0.1,0-0.1,0
			c0,0,0-0.1,0.1-0.1c0,0-0.1,0-0.1,0c0,0,0-0.1,0.1-0.1c0,0-0.1,0-0.1,0c0,0,0-0.1,0.1-0.1c0,0-0.1,0-0.1,0c0,0,0-0.1,0.1-0.1
			c0,0-0.1,0-0.1,0c0,0,0-0.1,0.1-0.1c0,0-0.1,0-0.1,0c0,0,0-0.1,0.1-0.1c0,0-0.1,0-0.1,0c0,0,0-0.1,0.1-0.1c0,0-0.1,0-0.1,0
			c0,0,0-0.1,0.1-0.1c0,0-0.1,0-0.1,0c0,0,0-0.1,0.1-0.1c0,0-0.1,0-0.1,0c0,0,0-0.1,0.1-0.1c0,0-0.1,0-0.1,0c0,0,0-0.1,0.1-0.1
			c0,0-0.1,0-0.1,0c0,0,0-0.1,0.1-0.1c0,0-0.1,0-0.1,0c0,0,0-0.1,0.1-0.1c0,0-0.1,0-0.1,0c0,0,0-0.1,0.1-0.1c0,0-0.1,0-0.1,0
			c0,0,0-0.1,0.1-0.1c0,0-0.1,0-0.1,0c0,0,0-0.1,0.1-0.1c0,0-0.1,0-0.1,0c0,0,0-0.1,0.1-0.1c0,0-0.1,0-0.1,0c0,0,0-0.1,0.1-0.1
			c0,0-0.1,0-0.1,0c0,0,0-0.1,0.1-0.1c0,0-0.1,0-0.1,0c0,0,0-0.1,0.1-0.1c0,0-0.1,0-0.1,0c0,0,0-0.1,0.1-0.1c0,0-0.1,0-0.1,0
			c0,0,0-0.1,0.1-0.1c0,0-0.1,0-0.1,0c0,0,0-0.1,0.1-0.1c0,0-0.1,0-0.1,0c0,0,0-0.1,0.1-0.1C157.5,543,157.5,542.9,157.4,542.9z"/>
		<g>
			<path class="st11" d="M137.4,533.1c2.8-0.1,5.2-0.4,7.7-0.4c8.3,0.1,13.7,3,10.1,5.3c-1.1,0.7-2.6,1.4-4.2,2.1
				c-1,0.4-0.8,0.6,0.3,0.9c2.2,0.6,4.3,1.2,6.3,1.8c-0.1,0.1-0.1,0.2-0.2,0.2c-2.5,1.2-2.9,1.2-6.3,0.3c-1.4-0.4-2.7-0.7-4-1.1
				c-1-0.3-1.8-0.3-2.6,0c-0.4,0.1-0.7,0.3-1.1,0.4c-1.8,0.4-1.2,0.8,0.2,1.2c1.9,0.5,3.7,1.1,5.5,1.6c0.2,0,0.2,0.1,0.4,0.2
				c-0.2,0.1-0.5,0.2-0.8,0.3c-2.4,1-2.7,1-5.5,0.1c-1.3-0.4-2.7-0.8-3.9-1.2c-1.1-0.4-2.1-0.4-3.2,0c-1.9,0.6-3.9,1.2-5.7,1.8
				c-1,0.3-1.8,0.4-2.9,0.1c0,0-0.1,0-0.2,0c-3.1-0.8-3.1-0.8-0.4-1.8c2.5-0.8,2.5-0.8-0.3-1.6c-6.7-1.9-13.4-3.8-20-5.7
				c-1.3-0.4-2.4-0.4-3.6,0c-0.4,0.1-0.9,0.3-1.3,0.4c-2.5,0.8-2.4,0.8-5.1,0c-1.5-0.4-1.4-0.8,0-1.2c1.9-0.6,3.5-1.2,5.4-1.7
				c0.9-0.3,0.9-0.5-0.1-0.8c-1.8-0.5-3.5-1-5.4-1.5c-2.2-0.6-0.2-0.9,0.7-1.3c1.2-0.5,2.1-0.3,3.3,0c1.6,0.5,3.4,0.9,5,1.4
				c1,0.3,1.9,0.3,2.8,0c0.4-0.1,0.8-0.3,1.2-0.4c1.4-0.4,1.1-0.7-0.1-1c-1.7-0.5-3.4-1-5-1.4c-2-0.6,0-0.9,0.9-1.3
				c1-0.4,2-0.3,3.1,0c1.6,0.5,3.4,0.9,5,1.4c1.2,0.4,1.9,0.3,3.2,0c2.3-0.6,4.7-1.1,7.4-1.5c3.7-0.5,7.2-0.3,10.3,0.5
				c3.2,0.9,4,2,3.4,3.2C137.7,532.7,137.6,532.9,137.4,533.1z M128.6,535.5c1.4-1,0.9-2.1-1.3-2.7c-2.5-0.7-5.7-0.8-8.2-0.2
				c-1.9,0.5-3.6,1-5.1,1.6c-0.4,0.2-0.3,0.6,0.2,0.8c2.4,0.7,4.9,1.4,7.5,2.1c0.5,0.1,2.1,0.1,2.6,0
				C125.8,536.6,127.1,536,128.6,535.5z M141.9,539.9c2.3-1.3,1.8-2.3-0.8-3c-2.7-0.7-5.8-0.7-8.8,0c-1.6,0.4-2.9,0.9-4.3,1.3
				c-0.8,0.3-0.9,0.6,0.1,0.9c2.5,0.7,5,1.4,7.5,2.1c0.9,0.3,1.8,0.3,2.6,0C139.7,540.8,141.1,540.2,141.9,539.9z"/>
		</g>
	</g>
</g>
</svg>
