<?xml version="1.0" encoding="utf-8"?>
<!-- Generator: Adobe Illustrator 19.2.0, SVG Export Plug-In . SVG Version: 6.00 Build 0)  -->
<svg version="1.1" id="Layer_1" xmlns="http://www.w3.org/2000/svg" xmlns:xlink="http://www.w3.org/1999/xlink" x="0px" y="0px"
	 viewBox="0 0 454.8 585.2" style="enable-background:new 0 0 454.8 585.2;" xml:space="preserve">
<style type="text/css">
	.st0{fill:#79410D;}
	.st1{fill:#462507;}
	.st2{opacity:0.2;}
	.st3{fill:#8C4C0F;}
	.st4{fill:#67370C;}
	.st5{fill:#CD9973;}
	.st6{fill:#FAF9F9;}
	.st7{fill:#E9D59C;}
	.st8{fill:#B5851B;}
	.st9{fill:#D9A01F;}
	.black{fill:#0A1C21}
</style>
<g>
	<g>
		<path class="st0" d="M98.2,229.7l0.4,39.3l-39.3,0.4c-21.5,0.2-39.1-17-39.3-38.5l-0.4-33.1c0-3.4,2.7-6.2,6.2-6.3l33.1-0.4
			C80.4,191,98,208.2,98.2,229.7z"/>
		<path class="st1" d="M83.8,229.9l0.3,24.8L59.3,255c-13.6,0.1-24.7-10.7-24.8-24.3l-0.2-20.9c0-2.2,1.7-3.9,3.9-4l20.9-0.2
			C72.6,205.5,83.7,216.4,83.8,229.9z"/>
		<path class="st0" d="M355.2,229.7l-0.4,39.3l39.3,0.4c21.5,0.2,39.1-17,39.3-38.5l0.4-33.1c0-3.4-2.7-6.2-6.2-6.3l-33.1-0.4
			C373,191,355.4,208.2,355.2,229.7z"/>
		<path class="st1" d="M368.5,229.9l-0.3,24.8L393,255c13.6,0.1,24.7-10.7,24.8-24.3l0.2-20.9c0-2.2-1.7-3.9-3.9-4l-20.9-0.2
			C379.7,205.5,368.6,216.4,368.5,229.9z"/>
		<ellipse class="st2" cx="220.3" cy="549.9" rx="205.6" ry="31.2"/>
		<path class="st0" d="M219.2,539.1l8,2.6c74.1,0,134.4-55.8,134.4-129.9V291.1c0-74.1-60.1-134.2-134.2-134.2l0,0
			c-74.1,0-134.2,60.1-134.2,134.2v120.6C93.2,485.8,145.1,539.1,219.2,539.1z"/>
		<ellipse class="st3" cx="227.3" cy="177.4" rx="51.9" ry="19.9"/>
		<path class="st0" d="M319.3,544.8H134.7c-64.2,0-116.2-52-116.2-116.2v0c0-64.2,52-116.2,116.2-116.2h184.6
			c64.2,0,116.2,52,116.2,116.2v0C435.6,492.7,383.5,544.8,319.3,544.8z"/>
		<path class="st3" d="M306.1,487.7H148c-45.4,0-82.1-36.8-82.1-82.1v-3.5c0-45.4,36.8-82.1,82.1-82.1h158
			c45.4,0,82.1,36.8,82.1,82.1v3.5C388.2,451,351.4,487.7,306.1,487.7z"/>
		<path class="st4" d="M233.8,387.2l-13.6,0c-21.8,0-39.6,17.6-39.6,39.5l0,27.2c0,21.8,17.6,39.6,39.5,39.6l13.6,0
			c21.8,0,39.6-17.6,39.6-39.5l0-27.2C273.3,405,255.6,387.2,233.8,387.2z"/>
		<ellipse class="st5" cx="225.7" cy="443.4" rx="41.1" ry="32.7"/>
		<circle class="st4" cx="269.2" cy="344.7" r="45.8"/>
		<circle class="st4" cx="181.5" cy="344.7" r="45.8"/>
		<g>
			<circle class="st6" cx="181.4" cy="329.8" r="45.8"/>
			<circle class='black' cx="180.2" cy="329.8" r="27.6"/>
		</g>
		<g>
			<circle class="st6" cx="269.2" cy="329.8" r="45.8"/>
			<circle class='black' cx="270.3" cy="329.8" r="27.6"/>
		</g>
		<rect class='black' x="223.7" y="325.7" class="st3" width="93.8" height="68.8"/>
		<rect class='black' x="130.9" y="325.7" class="st3" width="93.8" height="68.8"/>
		<path class="st5" d="M183.5,460.7c6,4.6,10.9,6,17.6,4.9c8.6-1.4,16.8-4.5,25.5-5.3c8.2-0.8,16.4,1.3,24.4,2.7
			c6,1.1,9.8,1.4,14.4-3.3c5.6-5.8,12.7-4.4,17.2-0.1c25.2-32.6,18.6-78.8-19.8-104.4c-11.7-7.8-24.2-12.3-37.2-12.3
			c-13,0-25.5,4.5-37.2,12.3c-39,26-45.2,73.4-18.4,106.1C174,458.6,179.6,457.7,183.5,460.7z"/>
		<g>
			<path class="st7" d="M121.7,86V20.6c0-10.8-8.7-19.5-19.5-19.5S82.7,9.9,82.7,20.6v65.1h-8.6c-18.5,0-33.6-15.1-33.6-33.6V21.7
				c0-10.8-8.7-19.5-19.5-19.5S1.6,10.9,1.6,21.7v30.5c0,40,32.5,72.6,72.6,72.6h41.5c18.5,0,33.6,15.1,33.6,33.6v19.4
				c0,10.8,8.7,19.5,19.5,19.5c10.8,0,19.5-8.7,19.5-19.5v-19.4C188.2,120.3,158.9,89.1,121.7,86z"/>
			<path class="st7" d="M433.7,1.1c-10.8,0-19.5,8.7-19.5,19.5v30.5c0,18.5-15.1,33.6-33.6,33.6h-8.6V19.5
				c0-10.8-8.7-19.5-19.5-19.5s-19.5,8.7-19.5,19.5v65.4c-37.2,3.1-66.5,34.3-66.5,72.3v19.4c0,10.8,8.7,19.5,19.5,19.5
				c10.8,0,19.5-8.7,19.5-19.5v-19.4c0-18.5,15.1-33.6,33.6-33.6h41.5c40,0,72.6-32.5,72.6-72.6V20.5C453.2,9.8,444.5,1.1,433.7,1.1
				z"/>
		</g>
		<ellipse class="st5" cx="196.6" cy="432.9" rx="35" ry="31.5"/>
		<ellipse class="st5" cx="254.6" cy="432.9" rx="35" ry="31.5"/>
		<path class='black' d="M186.2,410c0,14.1,17.6,42.3,39.3,42.3c21.7,0,39.3-28.2,39.3-42.3c0-14.1-17.6-25.5-39.3-25.5
			C203.9,384.5,186.2,395.9,186.2,410z"/>
		<g>
			<path class='black' d="M196.8,470.9c-8.4,0-17.6-2.7-27.1-9.9c-2.8-2.1-3.3-6-1.2-8.8c2.1-2.8,6-3.3,8.8-1.2c23.2,17.6,41.8-2.2,42.5-3
				c2.3-2.6,6.3-2.7,8.9-0.4c2.6,2.3,2.7,6.3,0.4,8.9C223.2,462.9,211.3,470.9,196.8,470.9z"/>
		</g>
		<g>
			<path class='black' d="M253.8,470.9c-8.4,0-17.6-2.7-27.1-9.9c-2.8-2.1-3.3-6-1.2-8.8c2.1-2.8,6-3.3,8.8-1.2c23.2,17.6,41.8-2.2,42.5-3
				c2.3-2.6,6.3-2.7,8.9-0.4c2.6,2.3,2.7,6.3,0.4,8.9C280.2,462.9,268.3,470.9,253.8,470.9z"/>
		</g>
		<ellipse class="st6" cx="234.6" cy="406.3" rx="6.2" ry="3.5"/>
		<polygon class="st0" points="377.3,359.2 339.3,342.5 381.8,389.6 346.9,376.6 389.4,424.5 397,388.8 		"/>
		<polygon class="st0" points="77.2,359.2 115.1,342.5 72.6,389.6 107.5,376.6 65,424.5 57.4,388.8 		"/>
		<path class="st0" d="M185.8,190.5c0,0,27.9-4,47.7-29.9l-9.7,32.2c0,0,20.1-6.3,36.1-28.9c0,0,7.2,27.5-20.1,38
			c-15.9,6.1-57.7,0-57.7,0L185.8,190.5z"/>
		<rect class='black' x="223.7" y="278.1" class="st0" width="93.8" height="33.7"/>
		<rect class='black' x="130.9" y="278.1" class="st0" width="93.8" height="33.7"/>
		<path class='black' d="M185.7,293.4l-36.4-0.3c-10.8-0.1-19.5-8.9-19.4-19.7l0,0c0.1-10.8,8.9-19.5,19.7-19.4l36.4,0.3
			c10.8,0.1,19.5,8.9,19.4,19.7v0C205.4,284.8,196.5,293.5,185.7,293.4z"/>
		<path class='black' d="M293.5,293.4l-36.4-0.3c-10.8-0.1-19.5-8.9-19.4-19.7l0,0c0.1-10.8,8.9-19.5,19.7-19.4l36.4,0.3
			c10.8,0.1,19.5,8.9,19.4,19.7v0C313.1,284.8,304.3,293.5,293.5,293.4z"/>
	</g>
	<g>
		<path class="st8" d="M261.7,542.5c0-0.2,0.1-0.4,0-0.7c-0.3-2.7-3.2-5.7-9.7-5.9c-1.6-0.1-4.8,2.4-6.6,2.4
			c-3.2-0.1-6.7-2.3-10.3-1.9c-4.3,0.5-2.7,7.1-6.2,8c-3.5,1-12.1-3.7-14.3-2.4c-2.9,1.7-4.5,3.5-4.3,5.3c0,0,0,0.1,0,0.1
			c0,0.2-0.1,0.5,0,0.7c0,0,0,0.1,0,0.1c0,0.2-0.1,0.5,0,0.7c0,0,0,0.1,0,0.1c0,0.2-0.1,0.5,0,0.7c0,0,0,0.1,0,0.1
			c0,0.2-0.1,0.5,0,0.7c0,0,0,0.1,0,0.1c0,0.2-0.1,0.5,0,0.7c0,0,0,0.1,0,0.1c0,0.2-0.1,0.5,0,0.7c0,0,0,0.1,0,0.1
			c0,0.2-0.1,0.5,0,0.7c0,0,0,0.1,0,0.1c0,0.2-0.1,0.5,0,0.7c0,0,0,0.1,0,0.1c0,0.2-0.1,0.5,0,0.7c0,0,0,0.1,0,0.1
			c0,0.2-0.1,0.5,0,0.7c0,0,0,0.1,0,0.1c0,0.2-0.1,0.5,0,0.7c0,0,0,0.1,0,0.1c0,0.2-0.1,0.5,0,0.7c0,0,0,0.1,0,0.1
			c0,0.2-0.1,0.5,0,0.7c0,0,0,0.1,0,0.1c0,0.2-0.1,0.5,0,0.7c0,0,0,0.1,0,0.1c0,0.2-0.1,0.5,0,0.7c0,0,0,0.1,0,0.1
			c0,0.2-0.1,0.5,0,0.7c0,0,0,0.1,0,0.1c0,0.2-0.1,0.5,0,0.7c0,0,0,0.1,0,0.1c0,0.2-0.1,0.5,0,0.7c0,0,0,0.1,0,0.1
			c0,0.2-0.1,0.5,0,0.7c0,0,0,0.1,0,0.1c0,0.2-0.1,0.5,0,0.7c0,0,0,0.1,0,0.1c0,0.2-0.1,0.5,0,0.7c0,0,0,0.1,0,0.1
			c0,0.2-0.1,0.5,0,0.7c0,0,0,0.1,0,0.1c0,0.2-0.1,0.5,0,0.7c0.5,4.5,12.4,7,26.6,5.5s25.4-6.4,24.9-11c0,0,0-0.1,0-0.1
			c0-0.2,0.1-0.4,0-0.7c0,0,0-0.1,0-0.1c0-0.2,0.1-0.4,0-0.7c0,0,0-0.1,0-0.1c0-0.2,0.1-0.4,0-0.7c0,0,0-0.1,0-0.1
			c0-0.2,0.1-0.4,0-0.7c0,0,0-0.1,0-0.1c0-0.2,0.1-0.4,0-0.7c0,0,0-0.1,0-0.1c0-0.2,0.1-0.4,0-0.7c0,0,0-0.1,0-0.1
			c0-0.2,0.1-0.4,0-0.7c0,0,0-0.1,0-0.1c0-0.2,0.1-0.4,0-0.7c0,0,0-0.1,0-0.1c0-0.2,0.1-0.4,0-0.7c0,0,0-0.1,0-0.1
			c0-0.2,0.1-0.4,0-0.7c0,0,0-0.1,0-0.1c0-0.2,0.1-0.4,0-0.7c0,0,0-0.1,0-0.1c0-0.2,0.1-0.4,0-0.7c0,0,0-0.1,0-0.1
			c0-0.2,0.1-0.4,0-0.7c0,0,0-0.1,0-0.1c0-0.2,0.1-0.4,0-0.7c0,0,0-0.1,0-0.1c0-0.2,0.1-0.4,0-0.7c0,0,0-0.1,0-0.1
			c0-0.2,0.1-0.4,0-0.7c0,0,0-0.1,0-0.1c0-0.2,0.1-0.4,0-0.7c0,0,0-0.1,0-0.1c0-0.2,0.1-0.4,0-0.7c0,0,0-0.1,0-0.1
			c0-0.2,0.1-0.4,0-0.7c0,0,0-0.1,0-0.1c0-0.2,0.1-0.4,0-0.7c0,0,0-0.1,0-0.1c0-0.2,0.1-0.4,0-0.7c0,0,0-0.1,0-0.1
			c0-0.2,0.1-0.4,0-0.7C261.7,542.6,261.7,542.6,261.7,542.5z"/>
		<path class="st9" d="M210.2,547.3c0.5,4.5,12.4,7,26.6,5.5c14.2-1.5,25.4-6.4,24.9-11c-0.3-2.7-3.2-5.7-9.7-5.9
			c-1.6-0.1-4.8,2.4-6.6,2.4c-3.2-0.1-6.7-2.3-10.3-1.9c-4.3,0.5-2.7,7.1-6.2,8c-3.5,1-12.1-3.7-14.3-2.4
			C211.7,543.7,210,545.5,210.2,547.3z"/>
	</g>
	<g>
		<path class="st8" d="M312.2,570.5l-23.2-0.1l0.2,9.4l0,0c0,0.2-0.1,0.3-0.1,0.5c0,2.7,5.2,5,11.7,5c6.5,0,11.7-2.2,11.7-5
			L312.2,570.5z"/>
		<ellipse class="st9" cx="300.8" cy="570" rx="11.7" ry="5"/>
	</g>
	<g>
		<path class="st8" d="M180.4,541.8l-23.2-0.1l0.2,9.4l0,0c0,0.2-0.1,0.3-0.1,0.5c0,2.7,5.2,5,11.7,5c6.5,0,11.7-2.2,11.7-5
			L180.4,541.8z"/>
		<ellipse class="st9" cx="169" cy="541.3" rx="11.7" ry="5"/>
	</g>
</g>
</svg>
