<svg width="612" height="690" viewBox="0 0 612 690" fill="none" xmlns="http://www.w3.org/2000/svg">
  <path
    d="M183.099 276.937L183.671 324.285L136.323 324.857C110.431 325.143 89.1176 304.401 88.8315 278.51L88.4023 238.6C88.4023 234.452 91.6924 231.019 95.8407 231.019L135.751 230.59C161.642 230.304 182.813 251.045 183.099 276.937Z"
    fill="#79410D" />
  <path
    d="M165.79 277.223L166.076 307.119L136.18 307.548C119.872 307.691 106.426 294.674 106.283 278.224L105.997 253.048C105.997 250.473 108 248.327 110.717 248.327L135.894 248.041C152.201 247.755 165.504 260.916 165.79 277.223Z"
    fill="#462507" />
  <path
    d="M492.936 276.937L492.364 324.285L539.712 324.857C565.603 325.143 586.917 304.401 587.203 278.51L587.632 238.6C587.632 234.452 584.342 231.019 580.194 231.019L540.284 230.59C514.536 230.304 493.222 251.045 492.936 276.937Z"
    fill="#79410D" />
  <path
    d="M508.957 277.223L508.671 307.119L538.567 307.405C554.875 307.548 568.321 294.531 568.464 278.081L568.75 252.905C568.75 250.33 566.747 248.184 564.029 248.184L538.853 247.898C522.546 247.755 509.243 260.915 508.957 277.223Z"
    fill="#462507" />
  <path
    d="M329.005 650L338.589 653.147C427.993 653.147 500.66 585.916 500.66 496.512V351.034C500.66 261.631 428.279 189.25 338.875 189.25C249.472 189.25 177.091 261.631 177.091 351.034V496.512C177.091 585.772 239.602 650 329.005 650Z"
    fill="#79410D" />
  <path
    d="M429.853 357.9L370.775 339.448C363.05 337.016 358.759 328.862 361.191 321.138L366.626 303.972C369.058 296.248 377.212 291.956 384.936 294.388L444.014 312.841C451.739 315.273 456.03 323.426 453.598 331.151L448.162 348.316C445.731 355.898 437.577 360.189 429.853 357.9Z"
    fill="#64360C" />
  <path
    d="M338.732 238.028C373.256 238.028 401.243 227.269 401.243 213.996C401.243 200.724 373.256 189.965 338.732 189.965C304.209 189.965 276.221 200.724 276.221 213.996C276.221 227.269 304.209 238.028 338.732 238.028Z"
    fill="#8C4C0F" />
  <path
    d="M449.736 656.866H227.157C149.769 656.866 86.9719 594.069 86.9719 516.681C86.9719 439.294 149.769 376.496 227.157 376.496H449.736C527.124 376.496 589.921 439.294 589.921 516.681C589.921 594.212 527.124 656.866 449.736 656.866Z"
    fill="#79410D" />
  <path
    d="M433.715 588.061H243.178C188.534 588.061 144.19 543.717 144.19 489.073V484.782C144.19 430.139 188.534 385.794 243.178 385.794H433.715C488.358 385.794 532.703 430.139 532.703 484.782V489.073C532.703 543.86 488.358 588.061 433.715 588.061Z"
    fill="#8C4C0F" />
  <path opacity="0.2"
    d="M211.708 604.655C211.708 635.409 198.262 658.297 173.658 658.297C149.197 658.297 129.313 633.407 129.313 602.652C129.313 571.897 149.197 547.007 173.658 547.007C198.118 547.007 211.708 574.043 211.708 604.655Z"
    fill="#081317" />
  <path
    d="M346.6 490.933H330.15C303.829 490.933 282.372 512.247 282.372 538.567V571.325C282.372 597.645 303.686 619.102 330.007 619.102H346.457C372.777 619.102 394.234 597.788 394.234 571.468V538.71C394.234 512.39 372.92 490.933 346.6 490.933Z"
    fill="#67370C" />
  <path
    d="M336.873 598.074C364.287 598.074 386.51 580.462 386.51 558.737C386.51 537.011 364.287 519.399 336.873 519.399C309.459 519.399 287.236 537.011 287.236 558.737C287.236 580.462 309.459 598.074 336.873 598.074Z"
    fill="#CD9973" />
  <path
    d="M389.371 470.764C419.865 470.764 444.586 446.043 444.586 415.548C444.586 385.053 419.865 360.332 389.371 360.332C358.876 360.332 334.155 385.053 334.155 415.548C334.155 446.043 358.876 470.764 389.371 470.764Z"
    fill="#67370C" />
  <path
    d="M283.517 470.764C314.012 470.764 338.732 446.043 338.732 415.548C338.732 385.053 314.012 360.332 283.517 360.332C253.022 360.332 228.301 385.053 228.301 415.548C228.301 446.043 253.022 470.764 283.517 470.764Z"
    fill="#67370C" />
  <path
    d="M283.374 452.883C313.869 452.883 338.589 428.162 338.589 397.667C338.589 367.172 313.869 342.452 283.374 342.452C252.879 342.452 228.158 367.172 228.158 397.667C228.158 428.162 252.879 452.883 283.374 452.883Z"
    fill="#FAF9F9" />
  <path
    d="M281.943 430.997C300.351 430.997 315.273 416.075 315.273 397.667C315.273 379.26 300.351 364.338 281.943 364.338C263.536 364.338 248.614 379.26 248.614 397.667C248.614 416.075 263.536 430.997 281.943 430.997Z"
    fill="black" />
  <path
    d="M303.257 388.369C309.893 388.369 315.273 382.99 315.273 376.353C315.273 369.717 309.893 364.338 303.257 364.338C296.621 364.338 291.241 369.717 291.241 376.353C291.241 382.99 296.621 388.369 303.257 388.369Z"
    fill="#FAF9F9" />
  <path
    d="M389.371 452.883C419.865 452.883 444.586 428.162 444.586 397.667C444.586 367.172 419.865 342.452 389.371 342.452C358.876 342.452 334.155 367.172 334.155 397.667C334.155 428.162 358.876 452.883 389.371 452.883Z"
    fill="#FAF9F9" />
  <path
    d="M390.658 430.997C409.065 430.997 423.988 416.075 423.988 397.667C423.988 379.26 409.065 364.338 390.658 364.338C372.251 364.338 357.328 379.26 357.328 397.667C357.328 416.075 372.251 430.997 390.658 430.997Z"
    fill="black" />
  <path
    d="M411.972 388.369C418.608 388.369 423.988 382.99 423.988 376.353C423.988 369.717 418.608 364.338 411.972 364.338C405.336 364.338 399.956 369.717 399.956 376.353C399.956 382.99 405.336 388.369 411.972 388.369Z"
    fill="#FAF9F9" />
  <path
    d="M292.1 350.033L248.757 356.756C235.883 358.759 223.867 349.89 221.864 337.016C219.861 324.142 228.73 312.126 241.604 310.123L284.947 303.4C297.821 301.397 309.837 310.266 311.84 323.14C313.842 336.014 304.974 348.03 292.1 350.033Z"
    fill="black" />
  <path
    d="M421.27 328.719L379.357 315.702C366.912 311.84 359.903 298.537 363.908 286.092C367.771 273.647 381.074 266.78 393.519 270.643L435.431 283.66C447.876 287.522 454.886 300.825 450.88 313.27C446.875 325.715 433.715 332.581 421.27 328.719Z"
    fill="black" />
  <path
    d="M285.949 555.59C293.101 561.168 298.966 562.742 307.262 561.455C317.562 559.738 327.432 556.019 338.017 555.018C347.887 554.016 357.758 556.591 367.485 558.308C374.637 559.595 379.357 560.024 384.793 554.302C391.516 547.293 400.099 549.01 405.535 554.159C435.861 514.822 427.993 459.177 381.646 428.279C367.485 418.838 352.465 413.545 336.73 413.545C320.995 413.545 305.975 418.981 291.813 428.279C244.751 459.606 237.313 516.824 269.641 556.162C274.505 553.015 281.228 552.014 285.949 555.59Z"
    fill="#CD9973" />
  <path
    d="M359.617 576.904H316.99C310.839 576.904 305.975 571.897 305.975 565.889V533.99C305.975 527.839 310.982 522.975 316.99 522.975H359.617C365.768 522.975 370.632 527.982 370.632 533.99V565.889C370.775 571.897 365.768 576.904 359.617 576.904Z"
    fill="#FAF9F9" />
  <path
    d="M211.422 103.708V24.89C211.422 11.8728 200.836 1.43045 187.962 1.43045C175.088 1.43045 164.503 11.8728 164.503 24.89V103.422H154.203C131.888 103.422 113.721 85.2553 113.721 62.9401V26.1774C113.721 13.1602 103.136 2.71786 90.262 2.71786C77.3879 2.71786 66.6594 13.1602 66.6594 26.1774V62.9401C66.6594 111.147 105.854 150.484 154.203 150.484H204.269C226.585 150.484 244.751 168.651 244.751 190.966V214.283C244.751 227.3 255.337 237.742 268.211 237.742C281.085 237.742 291.67 227.157 291.67 214.283V190.966C291.67 145.191 256.338 107.427 211.422 103.708Z"
    fill="#E9D59C" />
  <path
    d="M587.632 1.28741C574.615 1.28741 564.173 11.8728 564.173 24.7469V61.5097C564.173 83.8248 546.006 101.992 523.691 101.992H513.391V23.4595C513.391 10.4423 502.806 0 489.932 0C476.915 0 466.329 10.5854 466.329 23.4595V102.278C421.556 105.997 386.081 143.618 386.081 189.393V212.709C386.081 225.726 396.666 236.169 409.54 236.169C422.557 236.169 433 225.583 433 212.709V189.393C433 167.077 451.166 148.911 473.482 148.911H523.548C571.754 148.911 611.092 109.716 611.092 61.3666V24.7469C611.235 11.7298 600.649 1.28741 587.632 1.28741Z"
    fill="#E9D59C" />
  <path
    d="M301.684 560.167C324.989 560.167 343.882 543.132 343.882 522.117C343.882 501.103 324.989 484.067 301.684 484.067C278.378 484.067 259.485 501.103 259.485 522.117C259.485 543.132 278.378 560.167 301.684 560.167Z"
    fill="#CD9973" />
  <path
    d="M371.633 560.167C394.939 560.167 413.832 543.132 413.832 522.117C413.832 501.103 394.939 484.067 371.633 484.067C348.327 484.067 329.435 501.103 329.435 522.117C329.435 543.132 348.327 560.167 371.633 560.167Z"
    fill="#CD9973" />
  <path
    d="M289.239 494.366C289.239 511.389 310.409 545.433 336.73 545.433C362.907 545.433 384.221 511.389 384.221 494.366C384.221 477.344 363.05 463.611 336.73 463.611C310.552 463.754 289.239 477.487 289.239 494.366Z"
    fill="black" />
  <path
    d="M301.97 567.892C291.813 567.892 280.656 564.602 269.355 556.019C266.065 553.444 265.35 548.724 267.925 545.433C270.5 542.143 275.22 541.428 278.51 544.003C306.404 565.317 328.862 541.428 329.864 540.427C332.725 537.28 337.445 537.137 340.592 539.998C343.739 542.859 343.882 547.579 341.021 550.726C333.869 558.308 319.421 567.892 301.97 567.892Z"
    fill="black" />
  <path
    d="M370.775 567.892C360.618 567.892 349.461 564.602 338.16 556.019C334.87 553.444 334.155 548.724 336.73 545.433C339.305 542.143 344.025 541.428 347.315 544.003C375.209 565.317 397.667 541.428 398.669 540.427C401.53 537.28 406.25 537.137 409.397 539.998C412.544 542.859 412.687 547.579 409.826 550.726C402.531 558.308 388.226 567.892 370.775 567.892Z"
    fill="black" />
  <path
    d="M347.601 494.223C351.709 494.223 355.04 492.302 355.04 489.932C355.04 487.562 351.709 485.64 347.601 485.64C343.493 485.64 340.163 487.562 340.163 489.932C340.163 492.302 343.493 494.223 347.601 494.223Z"
    fill="#FAF9F9" />
  <path
    d="M519.542 433.143L473.768 412.973L525.121 469.762L482.923 454.17L534.276 511.961L543.431 468.904L519.542 433.143Z"
    fill="#79410D" />
  <path
    d="M157.636 433.143L203.554 412.973L152.201 469.762L194.399 454.17L143.046 511.961L133.891 468.904L157.636 433.143Z"
    fill="#79410D" />
  <path
    d="M288.666 229.731C288.666 229.731 322.282 224.868 346.171 193.684L334.441 232.449C334.441 232.449 358.759 224.868 377.927 197.689C377.927 197.689 386.51 230.876 353.609 243.464C334.441 250.902 283.946 243.464 283.946 243.464L288.666 229.731Z"
    fill="#79410D" />
  <path
    d="M164.646 535.849L144.762 527.839L146.193 538.138C143.904 537.566 141.758 536.708 139.756 535.563C130.887 530.557 126.023 521.116 126.452 511.675L106.569 503.664L104.853 525.264C99.7029 525.836 94.4102 524.835 89.6897 522.117C85.2552 519.685 81.8221 516.109 79.5334 511.818C79.2473 511.961 79.1043 511.961 78.8182 511.961L59.6501 503.807L69.5202 522.546L77.6738 523.118C77.1016 524.692 76.5295 526.122 75.6712 527.696C68.6619 540.284 52.7839 544.861 40.1958 537.852C40.0528 537.709 39.9097 537.709 39.7667 537.566C36.6197 541.142 33.7588 545.147 31.327 549.296C11.3006 583.341 18.4529 628.543 49.2077 654.863L41.7693 655.722L64.9427 665.449C103.136 685.189 152.773 672.172 175.517 632.405C193.541 601.221 188.248 561.884 164.646 535.849Z"
    fill="#B5851B" />
  <path
    d="M144.762 527.839C137.181 531.844 127.883 532.13 119.729 527.696C110.86 522.689 105.997 513.248 106.426 503.807C106.14 503.664 105.711 503.664 105.425 503.521C105.282 503.664 105.282 503.95 105.139 504.093C98.1294 516.681 82.2513 521.259 69.6633 514.25C65.2289 511.818 61.7958 508.242 59.507 503.95C59.2209 504.093 59.0779 504.093 58.7918 504.093C59.364 509.386 58.5057 514.822 55.7878 519.828C48.7786 532.416 32.9005 536.994 20.3125 529.985C20.1695 529.842 20.0264 529.842 19.8834 529.698C16.7364 533.275 13.8754 537.28 11.4437 541.428C-11.1576 579.765 0.715229 632.119 41.9124 655.722C80.5348 678.037 132.317 665.306 155.777 624.395C173.658 593.354 168.222 553.873 144.762 527.839Z"
    fill="#D9A01F" />
  <path
    d="M127.454 603.796C125.88 602.366 125.737 601.507 127.025 599.648C129.314 596.644 131.459 593.497 133.033 590.207C137.181 581.338 132.89 571.039 124.736 567.32C124.593 567.176 124.307 567.176 124.164 567.033C124.021 566.89 123.735 566.89 123.592 566.747C123.449 566.604 123.163 566.604 123.02 566.461C122.876 566.318 122.59 566.318 122.447 566.175C122.304 566.032 122.018 566.032 121.875 565.889C121.732 565.746 121.446 565.746 121.303 565.603C121.16 565.46 120.874 565.46 120.731 565.317C120.588 565.174 120.302 565.174 120.159 565.031C120.016 564.888 119.729 564.888 119.586 564.745C119.443 564.602 119.157 564.602 119.014 564.459C118.871 564.316 118.585 564.316 118.442 564.172C118.299 564.029 118.013 564.029 117.87 563.886C117.727 563.743 117.441 563.743 117.298 563.6C117.155 563.457 116.869 563.457 116.726 563.314C116.582 563.171 116.296 563.171 116.153 563.028C116.01 562.885 115.724 562.885 115.581 562.742C115.438 562.599 115.152 562.599 115.009 562.456C114.866 562.313 114.58 562.313 114.437 562.17C114.294 562.027 114.008 562.027 113.865 561.884C112.291 561.169 110.718 560.596 109.001 560.31C108.715 556.591 107.141 553.301 103.994 550.44C102.85 549.439 101.563 548.581 100.275 548.008C100.132 547.865 99.8461 547.865 99.7031 547.722C99.56 547.579 99.2739 547.579 99.1309 547.436C98.9878 547.293 98.7017 547.293 98.5587 547.15C98.4157 547.007 98.1296 547.007 97.9865 546.864C97.8435 546.721 97.5574 546.721 97.4143 546.578C97.2713 546.435 96.9852 546.435 96.8421 546.292C96.6991 546.149 96.413 546.149 96.27 546.006C96.1269 545.863 95.8408 545.863 95.6978 545.72C95.5547 545.577 95.2686 545.577 95.1256 545.433C94.9826 545.29 94.6965 545.29 94.5534 545.147C94.4104 545.004 94.1243 545.004 93.9812 544.861C93.8382 544.718 93.5521 544.718 93.4091 544.575C93.266 544.432 92.9799 544.432 92.8369 544.289C92.6938 544.146 92.4077 544.146 92.2647 544.003C92.1216 543.86 91.8355 543.86 91.6925 543.717C91.5494 543.574 91.2634 543.574 91.1203 543.431C90.9773 543.288 90.6912 543.288 90.5481 543.145C90.4051 543.002 90.119 543.002 89.976 542.859C89.8329 542.716 89.5468 542.716 89.4038 542.573C85.8276 540.713 81.9654 540.427 77.9601 542.286C74.384 544.003 71.0939 546.435 68.0899 548.867C67.9469 548.724 67.8039 548.724 67.8039 548.581C67.2317 548.008 66.6595 547.579 66.0873 547.293C65.9443 547.15 65.6582 547.007 65.5151 547.007C65.3721 546.864 65.086 546.721 64.9429 546.721C64.7999 546.578 64.5138 546.435 64.3708 546.435C64.2277 546.292 63.9416 546.149 63.7986 546.149C63.6555 546.006 63.3694 545.863 63.2264 545.863C63.0833 545.72 62.7972 545.577 62.6542 545.577C62.5112 545.433 62.2251 545.29 62.082 545.29C61.939 545.147 61.6529 545.004 61.5098 545.004C61.3668 544.861 61.0807 544.718 60.9377 544.718C60.7946 544.575 60.5085 544.432 60.3655 544.432C60.2224 544.289 59.9363 544.146 59.7933 544.146C59.6502 544.003 59.3642 543.86 59.2211 543.86C59.0781 543.717 58.792 543.574 58.6489 543.574C58.5059 543.431 58.2198 543.288 58.0767 543.288C57.9337 543.145 57.6476 543.002 57.5046 543.002C57.3615 542.859 57.0754 542.716 56.9324 542.716C56.7893 542.573 56.5032 542.43 56.3602 542.43C56.2171 542.287 55.9311 542.143 55.788 542.143C55.645 542 55.3589 541.857 55.2158 541.857C54.0715 541.142 53.0701 541.285 52.0688 542.716C50.7814 544.432 48.0635 545.863 50.7814 548.437C53.0701 550.583 55.5019 552.872 57.7906 555.018C59.5072 556.591 60.0794 558.022 57.9337 559.595C57.5046 560.024 57.0754 560.453 56.7893 560.882C56.2171 560.31 55.645 559.738 55.0728 559.595C54.9297 559.452 54.6436 559.309 54.5006 559.309C54.3575 559.166 54.0715 559.023 53.9284 559.023C53.7854 558.88 53.4993 558.737 53.3562 558.737C53.2132 558.594 52.9271 558.451 52.784 558.451C52.641 558.308 52.3549 558.165 52.2119 558.165C52.0688 558.022 51.7827 557.878 51.6397 557.878C51.4966 557.735 51.2105 557.592 51.0675 557.592C50.9245 557.449 50.6384 557.306 50.4953 557.306C50.3523 557.163 50.0662 557.02 49.9231 557.02C49.7801 556.877 49.494 556.734 49.3509 556.734C49.2079 556.591 48.9218 556.448 48.7788 556.448C48.6357 556.305 48.3496 556.162 48.2066 556.162C48.0635 556.019 47.7774 555.876 47.6344 555.876C47.4914 555.733 47.2053 555.59 47.0622 555.59C46.9192 555.447 46.6331 555.304 46.49 555.304C46.347 555.161 46.0609 555.018 45.9178 555.018C45.7748 554.875 45.4887 554.731 45.3457 554.731C45.2026 554.588 44.9165 554.445 44.7735 554.445C44.6304 554.302 44.3443 554.159 44.2013 554.159C43.0569 553.444 42.0556 553.587 40.9112 555.018C39.4808 556.877 36.7629 558.308 39.9099 561.026C42.4847 563.314 44.9165 565.746 47.4914 568.035C48.7788 569.179 48.9218 570.323 47.6344 571.611C45.0596 574.186 42.7708 577.047 40.053 579.621C38.0503 581.624 37.9073 583.055 40.053 585.057C41.6265 586.488 42.4847 587.346 43.343 587.632C43.4861 587.775 43.7722 587.918 43.9152 587.918C44.0583 588.061 44.3443 588.204 44.4874 588.204C44.6304 588.347 44.9165 588.49 45.0596 588.49C45.2026 588.633 45.4887 588.776 45.6318 588.776C45.7748 588.919 46.0609 589.062 46.2039 589.062C46.347 589.206 46.6331 589.349 46.7761 589.349C46.9192 589.492 47.2053 589.635 47.3483 589.635C47.4913 589.778 47.7774 589.921 47.9205 589.921C48.0635 590.064 48.3496 590.207 48.4927 590.207C48.6357 590.35 48.9218 590.493 49.0649 590.493C49.2079 590.636 49.494 590.779 49.637 590.779C49.7801 590.922 50.0662 591.065 50.2092 591.065C50.3523 591.208 50.6384 591.351 50.7814 591.351C50.9245 591.494 51.2105 591.637 51.3536 591.637C51.4966 591.78 51.7827 591.923 51.9258 591.923C52.0688 592.066 52.3549 592.209 52.498 592.209C52.641 592.353 52.9271 592.496 53.0701 592.496C53.2132 592.639 53.4993 592.782 53.6423 592.782C53.7854 592.925 54.0715 593.068 54.2145 593.068C55.645 593.926 56.3602 593.211 58.792 590.636C59.3641 590.064 59.9363 589.492 60.5085 588.776C67.6608 595.356 74.9561 601.937 82.1084 608.66C85.9707 612.236 85.9707 612.236 82.3945 616.098C78.5323 620.39 78.5323 620.39 82.8237 624.252C82.9667 624.395 82.9667 624.395 83.1097 624.538C83.5389 625.11 84.1111 625.396 84.5402 625.539C84.6833 625.682 84.9693 625.825 85.1124 625.825C85.2554 625.968 85.5415 626.111 85.6846 626.111C85.8276 626.254 86.1137 626.397 86.2568 626.397C86.3998 626.54 86.6859 626.684 86.8289 626.684C86.972 626.827 87.2581 626.97 87.4011 626.97C87.5442 627.113 87.8303 627.256 87.9733 627.256C88.1164 627.399 88.4024 627.542 88.5455 627.542C88.6885 627.685 88.9746 627.828 89.1177 627.828C89.2607 627.971 89.5468 628.114 89.6899 628.114C89.8329 628.257 90.119 628.4 90.262 628.4C90.4051 628.543 90.6912 628.686 90.8342 628.686C90.9773 628.829 91.2634 628.972 91.4064 628.972C91.5495 629.115 91.8355 629.258 91.9786 629.258C92.1216 629.401 92.4077 629.544 92.5508 629.544C92.6938 629.688 92.9799 629.831 93.123 629.831C93.266 629.974 93.5521 630.117 93.6951 630.117C93.8382 630.26 94.1243 630.403 94.2673 630.403C94.4104 630.546 94.6965 630.689 94.8395 630.689C94.9826 630.832 95.2686 630.975 95.4117 630.975C96.556 631.69 97.5574 631.261 98.5587 629.974C100.99 627.256 103.708 624.824 106.14 622.106C106.998 622.964 107.714 623.537 108.429 623.68C108.572 623.823 108.858 623.966 109.001 623.966C109.144 624.109 109.43 624.252 109.573 624.252C109.716 624.395 110.002 624.538 110.145 624.538C110.288 624.681 110.575 624.824 110.718 624.824C110.861 624.967 111.147 625.11 111.29 625.11C111.433 625.253 111.719 625.396 111.862 625.396C112.005 625.539 112.291 625.682 112.434 625.682C112.577 625.825 112.863 625.968 113.006 625.968C113.149 626.111 113.435 626.254 113.579 626.254C113.722 626.397 114.008 626.54 114.151 626.54C114.294 626.684 114.58 626.827 114.723 626.827C114.866 626.97 115.152 627.113 115.295 627.113C115.438 627.256 115.724 627.399 115.867 627.399C116.01 627.542 116.296 627.685 116.439 627.685C116.582 627.828 116.869 627.971 117.012 627.971C117.155 628.114 117.441 628.257 117.584 628.257C117.727 628.4 118.013 628.543 118.156 628.543C118.299 628.686 118.585 628.829 118.728 628.829C118.871 628.972 119.157 629.115 119.3 629.115C121.017 630.117 121.875 629.115 124.307 626.111C124.736 625.539 125.022 624.967 125.308 624.538C125.022 624.109 125.022 623.823 124.736 623.537C122.161 621.105 119.729 618.673 117.012 616.241C115.009 614.525 114.151 612.808 116.726 610.948C117.155 610.662 117.441 610.233 117.727 609.947C118.442 610.519 119.014 610.805 119.586 611.092C119.729 611.235 120.016 611.235 120.159 611.378C120.302 611.521 120.588 611.521 120.731 611.664C120.874 611.807 121.16 611.807 121.303 611.95C121.446 612.093 121.732 612.093 121.875 612.236C122.018 612.379 122.304 612.379 122.447 612.522C122.59 612.665 122.876 612.665 123.02 612.808C123.163 612.951 123.449 612.951 123.592 613.094C123.735 613.237 124.021 613.237 124.164 613.38C124.307 613.523 124.593 613.523 124.736 613.666C124.879 613.809 125.165 613.809 125.308 613.952C125.451 614.096 125.737 614.095 125.88 614.239C126.023 614.382 126.31 614.382 126.453 614.525C126.596 614.668 126.882 614.668 127.025 614.811C127.168 614.954 127.454 614.954 127.597 615.097C127.74 615.24 128.026 615.24 128.169 615.383C128.312 615.526 128.598 615.526 128.741 615.669C128.884 615.812 129.17 615.812 129.314 615.955C129.457 616.098 129.743 616.098 129.886 616.241C130.029 616.384 130.315 616.384 130.458 616.527C132.604 617.815 133.605 616.67 136.323 612.808C136.466 612.665 136.466 612.379 136.609 611.807C133.462 609.375 130.458 606.514 127.454 603.796ZM94.8395 591.351C96.6991 589.206 98.5587 587.06 100.847 585.2C101.992 584.342 103.136 583.627 104.281 583.198C105.139 585.915 104.71 589.206 102.707 592.925C101.849 594.069 100.132 596.072 98.2726 598.217C97.1282 597.216 96.1269 596.215 94.9826 595.213C93.5521 594.069 93.6951 592.639 94.8395 591.351ZM83.968 572.898C82.1084 575.044 80.3919 577.19 78.3892 579.192C77.3879 578.191 76.2436 577.19 75.2422 576.188C74.527 575.473 74.384 573.327 74.9561 572.612C77.1018 570.037 79.3906 567.463 82.1084 565.317C82.8237 564.745 83.6819 564.316 84.3972 564.029C85.3985 566.747 85.2554 570.037 83.968 572.898Z"
    fill="#B5851B" />
  <path
    d="M96.413 561.741C100.275 561.026 103.708 559.881 107.141 560.024C118.871 560.596 126.453 573.614 121.303 584.342C119.729 587.775 117.584 590.922 115.295 593.783C114.008 595.5 114.151 596.501 115.724 597.931C118.728 600.649 121.732 603.51 124.593 606.085C124.45 606.657 124.45 606.943 124.307 607.086C120.731 612.379 120.159 612.522 115.438 608.374C113.578 606.657 111.576 604.941 109.859 603.224C108.572 601.937 107.427 602.08 106.283 603.367C105.711 603.939 105.282 604.655 104.71 605.084C102.135 607.086 102.993 608.66 104.996 610.376C107.714 612.665 110.145 615.24 112.72 617.672C113.006 617.815 113.006 618.244 113.292 618.673C113.006 619.245 112.577 619.817 112.291 620.247C108.858 624.681 108.429 624.681 104.567 620.819C102.707 619.102 100.847 617.386 98.9878 615.526C97.4143 613.952 96.1269 613.952 94.5534 615.669C91.9785 618.53 89.1176 621.105 86.5428 623.966C85.1123 625.539 83.968 625.968 82.5375 624.252C82.5375 624.109 82.3945 624.109 82.2514 623.966C77.817 620.103 77.817 620.103 81.8223 615.812C85.2554 611.95 85.2554 611.95 81.5362 608.374C72.2382 599.791 62.7972 591.208 53.4992 582.625C51.6396 580.909 50.2092 580.623 48.4926 582.625C47.9204 583.341 47.2052 583.913 46.633 584.485C43.0569 588.204 43.1999 588.204 39.4807 584.628C37.335 582.625 37.4781 581.052 39.4807 579.192C42.0556 576.618 44.4873 573.9 47.0622 571.182C48.3496 569.894 48.3496 568.75 46.9191 567.606C44.3443 565.317 41.9125 562.885 39.3377 560.596C36.1907 557.879 39.0516 556.448 40.339 554.589C41.9125 552.443 43.343 553.158 44.9165 554.732C47.2052 557.02 49.637 559.023 51.9257 561.312C53.3562 562.742 54.6436 562.599 55.788 561.169C56.3601 560.453 56.7893 559.738 57.5045 559.166C59.5071 557.449 59.078 556.019 57.3615 554.589C54.9297 552.443 52.6409 550.297 50.3522 548.008C47.6343 545.434 50.3522 544.003 51.6396 542.287C53.0701 540.284 54.3575 540.713 55.931 542.287C58.2197 544.575 60.7946 546.578 63.0833 548.724C64.6568 550.297 65.8012 550.011 67.5177 548.724C70.8078 546.149 74.0978 543.574 77.817 541.857C82.9667 539.426 87.9733 540.427 92.2646 544.289C96.8421 548.295 97.9865 553.301 96.9851 559.023C96.6991 560.167 96.556 561.026 96.413 561.741ZM83.968 572.898C85.9706 568.321 85.2554 563.171 82.1084 560.453C78.5322 557.306 74.0978 556.734 70.5217 559.595C67.8038 561.741 65.5151 564.173 63.3694 566.89C62.7972 567.606 62.9402 569.751 63.6555 570.467C66.9455 573.9 70.5217 577.047 74.2409 580.051C74.9561 580.623 77.1018 580.48 77.817 579.908C79.9627 577.762 81.9653 575.33 83.968 572.898ZM102.707 593.068C105.854 587.06 105.139 582.339 101.706 579.335C97.9865 576.188 93.552 576.045 89.2607 579.478C86.9719 581.195 85.1123 583.484 83.2527 585.629C82.1084 586.917 81.9653 588.347 83.3958 589.635C86.9719 592.782 90.405 596.072 93.8381 599.219C95.1255 600.363 96.2699 600.649 97.5573 599.219C99.56 596.787 101.563 594.355 102.707 593.068Z"
    fill="#F7D387" />
  <path
    d="M412.401 652.718C412.401 652.575 412.401 652.289 412.401 652.146C412.115 649.857 409.683 647.282 404.104 647.139C402.674 647.139 400.099 649.142 398.526 649.142C395.808 648.999 392.804 647.139 389.8 647.568C386.224 647.997 387.511 653.576 384.507 654.434C381.503 655.293 374.208 651.287 372.348 652.432C369.916 653.862 368.486 655.436 368.629 657.009C368.629 657.009 368.629 657.009 368.629 657.152C368.629 657.295 368.629 657.581 368.629 657.725C368.629 657.725 368.629 657.725 368.629 657.868C368.629 658.011 368.629 658.297 368.629 658.44C368.629 658.44 368.629 658.44 368.629 658.583C368.629 658.726 368.629 659.012 368.629 659.155C368.629 659.155 368.629 659.155 368.629 659.298C368.629 659.441 368.629 659.727 368.629 659.87C368.629 659.87 368.629 659.87 368.629 660.013C368.629 660.156 368.629 660.442 368.629 660.585C368.629 660.585 368.629 660.585 368.629 660.728C368.629 660.872 368.629 661.158 368.629 661.301C368.629 661.301 368.629 661.301 368.629 661.444C368.629 661.587 368.629 661.873 368.629 662.016C368.629 662.016 368.629 662.016 368.629 662.159C368.629 662.302 368.629 662.588 368.629 662.731C368.629 662.731 368.629 662.731 368.629 662.874C368.629 663.017 368.629 663.303 368.629 663.446C368.629 663.446 368.629 663.446 368.629 663.589C368.629 663.732 368.629 664.019 368.629 664.162C368.629 664.162 368.629 664.162 368.629 664.305C368.629 664.448 368.629 664.734 368.629 664.877C368.629 664.877 368.629 664.877 368.629 665.02C368.629 665.163 368.629 665.449 368.629 665.592C368.629 665.592 368.629 665.592 368.629 665.735C368.629 665.878 368.629 666.164 368.629 666.307C368.629 666.307 368.629 666.307 368.629 666.45C368.629 666.593 368.629 666.879 368.629 667.022C368.629 667.022 368.629 667.022 368.629 667.166C368.629 667.309 368.629 667.595 368.629 667.738C368.629 667.738 368.629 667.738 368.629 667.881C368.629 668.024 368.629 668.31 368.629 668.453C368.629 668.453 368.629 668.453 368.629 668.596C368.629 668.739 368.629 669.025 368.629 669.168C368.629 669.168 368.629 669.168 368.629 669.311C368.629 669.454 368.629 669.74 368.629 669.883C368.629 669.883 368.629 669.883 368.629 670.026C368.629 670.169 368.629 670.456 368.629 670.599C368.629 670.599 368.629 670.599 368.629 670.742C368.629 670.885 368.629 671.171 368.629 671.314C368.629 671.314 368.629 671.314 368.629 671.457C368.629 671.6 368.629 671.886 368.629 672.029C368.629 672.029 368.629 672.029 368.629 672.172C368.629 672.315 368.629 672.601 368.629 672.744C368.629 672.744 368.629 672.744 368.629 672.887C368.629 673.03 368.629 673.316 368.629 673.46C369.058 677.322 379.214 679.467 391.23 678.18C403.389 676.893 412.83 672.744 412.401 668.882V668.739C412.401 668.596 412.401 668.31 412.401 668.167V668.024C412.401 667.881 412.401 667.595 412.401 667.452V667.309C412.401 667.166 412.401 666.879 412.401 666.736V666.593C412.401 666.45 412.401 666.164 412.401 666.021V665.878C412.401 665.735 412.401 665.449 412.401 665.306V665.163C412.401 665.02 412.401 664.734 412.401 664.591V664.448C412.401 664.305 412.401 664.019 412.401 663.875V663.732C412.401 663.589 412.401 663.303 412.401 663.16V663.017C412.401 662.874 412.401 662.588 412.401 662.445V662.302C412.401 662.159 412.401 661.873 412.401 661.73V661.587C412.401 661.444 412.401 661.158 412.401 661.015V660.872C412.401 660.728 412.401 660.442 412.401 660.299V660.156C412.401 660.013 412.401 659.727 412.401 659.584V659.441C412.401 659.298 412.401 659.012 412.401 658.869V658.726C412.401 658.583 412.401 658.297 412.401 658.154V658.011C412.401 657.868 412.401 657.581 412.401 657.438V657.295C412.401 657.152 412.401 656.866 412.401 656.723V656.58C412.401 656.437 412.401 656.151 412.401 656.008V655.865C412.401 655.722 412.401 655.436 412.401 655.293V655.15C412.401 655.007 412.401 654.721 412.401 654.578V654.434C412.401 654.291 412.401 654.005 412.401 653.862V653.719C412.544 653.147 412.544 653.004 412.401 652.718C412.544 652.718 412.401 652.718 412.401 652.718Z"
    fill="#B5851B" />
  <path
    d="M368.629 656.723C369.058 660.586 379.214 662.731 391.23 661.444C403.389 660.156 412.83 656.008 412.401 652.146C412.115 649.857 409.683 647.282 404.104 647.139C402.674 647.139 400.099 649.142 398.526 649.142C395.808 648.999 392.804 647.139 389.8 647.568C386.224 647.997 387.511 653.576 384.507 654.435C381.503 655.293 374.208 651.288 372.348 652.432C369.916 653.719 368.486 655.293 368.629 656.723Z"
    fill="#D9A01F" />
  <path
    d="M455.458 676.464L435.718 676.321L435.861 684.331C435.861 684.474 435.718 684.617 435.718 684.76C435.718 687.049 440.152 689.052 445.731 689.052C451.309 689.052 455.744 687.192 455.744 684.76L455.458 676.464Z"
    fill="#B5851B" />
  <path
    d="M445.731 680.326C451.261 680.326 455.744 678.404 455.744 676.034C455.744 673.664 451.261 671.743 445.731 671.743C440.201 671.743 435.718 673.664 435.718 676.034C435.718 678.404 440.201 680.326 445.731 680.326Z"
    fill="#D9A01F" />
  <path
    d="M343.31 652.146L323.57 652.003L323.713 660.013C323.713 660.156 323.57 660.299 323.57 660.442C323.57 662.731 328.004 664.734 333.583 664.734C339.019 664.734 343.596 662.874 343.596 660.442L343.31 652.146Z"
    fill="#B5851B" />
  <path
    d="M333.583 656.008C339.113 656.008 343.596 654.087 343.596 651.717C343.596 649.347 339.113 647.425 333.583 647.425C328.053 647.425 323.57 649.347 323.57 651.717C323.57 654.087 328.053 656.008 333.583 656.008Z"
    fill="#D9A01F" />
</svg>