<?xml version="1.0" encoding="utf-8"?>
<!-- Generator: Adobe Illustrator 19.2.0, SVG Export Plug-In . SVG Version: 6.00 Build 0)  -->
<svg version="1.1" id="Layer_1" xmlns="http://www.w3.org/2000/svg" xmlns:xlink="http://www.w3.org/1999/xlink" x="0px" y="0px"
	 viewBox="0 0 454.8 585.2" style="enable-background:new 0 0 454.8 585.2;" xml:space="preserve">
<style type="text/css">
	.st0{fill:#79410D;}
	.st1{fill:#462507;}
	.st2{opacity:0.2;}
	.st3{fill:#8C4C0F;}
	.st4{fill:#67370C;}
	.st5{fill:#CD9973;}
	.st6{fill:#FAF9F9;}
	.st7{fill:#E9D59C;}
	.st8{fill:#B5851B;}
	.st9{fill:#D9A01F;}
	.st10{fill:#F7D387;}
	.black{fill:#0A1C21}
</style>
<g>
	<g>
		<path class="st0" d="M98.2,229.8l0.4,39.3l-39.3,0.4c-21.5,0.2-39.1-17-39.3-38.5L19.6,198c0-3.4,2.7-6.3,6.2-6.3l33.1-0.4
			C80.3,191.1,97.9,208.3,98.2,229.8z"/>
		<path class="st1" d="M83.8,230l0.3,24.8l-24.8,0.3c-13.6,0.1-24.7-10.7-24.8-24.3l-0.2-20.9c0-2.2,1.7-3.9,3.9-4l20.9-0.2
			C72.5,205.6,83.6,216.5,83.8,230z"/>
		<path class="st0" d="M355.2,229.8l-0.4,39.3l39.3,0.4c21.5,0.2,39.1-17,39.3-38.5l0.4-33.1c0-3.4-2.7-6.3-6.2-6.3l-33.1-0.4
			C373.1,191.1,355.5,208.3,355.2,229.8z"/>
		<path class="st1" d="M368.5,230l-0.3,24.8l24.8,0.3c13.6,0.1,24.7-10.7,24.8-24.3l0.2-20.9c0-2.2-1.7-3.9-3.9-4l-20.9-0.2
			C379.8,205.6,368.7,216.5,368.5,230z"/>
		<ellipse class="st2" cx="220.3" cy="550.1" rx="205.7" ry="31.2"/>
		<path class="st0" d="M219.2,539.3l8,2.6c74.1,0,134.5-55.8,134.5-130V291.3c0-74.1-60.1-134.2-134.2-134.2l0,0
			c-74.1,0-134.2,60.1-134.2,134.2v120.6C93.2,486,145.1,539.3,219.2,539.3z"/>
		<ellipse class="st3" cx="227.3" cy="177.5" rx="51.9" ry="20"/>
		<path class="st0" d="M319.4,545H134.7c-64.2,0-116.3-52.1-116.3-116.3l0,0c0-64.2,52.1-116.3,116.3-116.3h184.7
			c64.2,0,116.3,52.1,116.3,116.3l0,0C435.7,492.9,383.6,545,319.4,545z"/>
		<path class="st3" d="M306.1,487.9H148c-45.4,0-82.2-36.8-82.2-82.2v-3.5c0-45.4,36.8-82.2,82.2-82.2h158.1
			c45.4,0,82.2,36.8,82.2,82.2v3.5C388.3,451.2,351.5,487.9,306.1,487.9z"/>
		<g>
			<path class="st4" d="M233.8,402.1l-13.6,0c-21.9,0-39.6,17.7-39.6,39.5l0,27.2c0,21.8,17.7,39.6,39.5,39.6l13.6,0
				c21.9,0,39.6-17.7,39.6-39.5l0-27.2C273.3,419.9,255.6,402.2,233.8,402.1z"/>
			<ellipse class="st5" cx="225.7" cy="458.4" rx="41.1" ry="32.7"/>
			<path class="st6" d="M244.6,473.4h-35.3c-5.1,0-9.2-4.1-9.2-9.2v-26.5c0-5.1,4.1-9.2,9.2-9.2h35.3c5.1,0,9.2,4.1,9.2,9.2v26.5
				C253.8,469.3,249.7,473.4,244.6,473.4z"/>
		</g>
		<circle class="st4" cx="269.2" cy="344.8" r="45.8"/>
		<circle class="st4" cx="181.5" cy="344.8" r="45.8"/>
		<circle class="st6" cx="181.3" cy="330" r="45.8"/>
		<circle class='black' cx="172.7" cy="347.4" r="27.6"/>
		<circle class="st6" cx="190.4" cy="329.8" r="10"/>
		<circle class="st6" cx="269.2" cy="330" r="45.8"/>
		<circle class='black' cx="262.8" cy="347.4" r="27.6"/>
		<circle class="st6" cx="280.5" cy="329.8" r="10"/>
		<path class='black' d="M186,301.2l-35.7-7.3c-10.6-2.2-17.4-12.5-15.3-23.1v0c2.2-10.6,12.5-17.4,23.1-15.3l35.7,7.3
			c10.6,2.2,17.4,12.5,15.3,23.1l0,0C207,296.5,196.6,303.3,186,301.2z"/>
		<path class='black' d="M293.8,282l-32.1,17.1c-9.6,5.1-21.4,1.4-26.5-8.1v0c-5.1-9.6-1.4-21.4,8.1-26.5l32.1-17.1c9.6-5.1,21.4-1.4,26.5,8.1v0
			C306.9,265.1,303.3,277,293.8,282z"/>
		<path class="st5" d="M183.5,460.9c6,4.6,10.9,6,17.6,4.9c8.6-1.4,16.8-4.5,25.5-5.3c8.2-0.8,16.4,1.3,24.4,2.7
			c6,1.1,9.8,1.4,14.4-3.3c5.6-5.8,12.7-4.4,17.2-0.1c25.2-32.6,18.6-78.9-19.8-104.4c-11.7-7.8-24.2-12.3-37.2-12.3
			c-13,0-25.5,4.5-37.2,12.3c-39.1,26-45.2,73.4-18.4,106.1C174,458.8,179.6,457.9,183.5,460.9z"/>
		<g>
			<path class="st7" d="M121.7,86.1V20.6c0-10.8-8.7-19.5-19.5-19.5S82.7,9.9,82.7,20.6v65.1h-8.6c-18.5,0-33.6-15.1-33.6-33.6V21.7
				c0-10.8-8.7-19.5-19.5-19.5S1.5,10.9,1.5,21.7v30.5c0,40,32.6,72.6,72.6,72.6h41.5c18.5,0,33.6,15.1,33.6,33.6v19.4
				c0,10.8,8.7,19.5,19.5,19.5c10.8,0,19.5-8.7,19.5-19.5v-19.4C188.2,120.4,158.9,89.2,121.7,86.1z"/>
			<path class="st7" d="M433.8,1.1c-10.8,0-19.5,8.7-19.5,19.5v30.5c0,18.5-15.1,33.6-33.6,33.6h-8.6V19.5
				c0-10.8-8.7-19.5-19.5-19.5c-10.8,0-19.5,8.7-19.5,19.5v65.4c-37.2,3.1-66.5,34.3-66.5,72.3v19.4c0,10.8,8.7,19.5,19.5,19.5
				s19.5-8.7,19.5-19.5v-19.4c0-18.5,15.1-33.6,33.6-33.6h41.5c40,0,72.6-32.6,72.6-72.6V20.6C453.3,9.8,444.6,1.1,433.8,1.1z"/>
		</g>
		<ellipse class="st5" cx="196.6" cy="433.1" rx="35" ry="31.5"/>
		<ellipse class="st5" cx="254.6" cy="433.1" rx="35" ry="31.5"/>
		<path class='black' d="M186.2,410.2c0,14.1,17.6,42.3,39.4,42.3s39.4-28.2,39.4-42.3c0-14.1-17.6-25.5-39.4-25.5S186.2,396.1,186.2,410.2z"/>
		<g>
			<path class='black' d="M196.8,471.1c-8.4,0-17.7-2.7-27.1-9.9c-2.8-2.1-3.3-6-1.2-8.8c2.1-2.8,6-3.3,8.8-1.2c23.2,17.6,41.8-2.2,42.5-3
				c2.3-2.6,6.3-2.7,8.9-0.4c2.6,2.3,2.7,6.3,0.4,8.9C223.2,463.1,211.3,471.1,196.8,471.1z"/>
		</g>
		<g>
			<path class='black' d="M253.8,471.1c-8.4,0-17.7-2.7-27.1-9.9c-2.8-2.1-3.3-6-1.2-8.8c2.1-2.8,6-3.3,8.8-1.2c23.2,17.6,41.8-2.2,42.5-3
				c2.3-2.6,6.3-2.7,8.9-0.4c2.6,2.3,2.7,6.3,0.4,8.9C280.2,463.1,268.3,471.1,253.8,471.1z"/>
		</g>
		<ellipse class="st6" cx="234.6" cy="406.5" rx="6.2" ry="3.5"/>
		<polygon class="st0" points="377.3,359.3 339.3,342.6 381.9,389.7 346.9,376.8 389.5,424.7 397.1,389 		"/>
		<polygon class="st0" points="77.1,359.3 115.1,342.6 72.5,389.7 107.5,376.8 64.9,424.7 57.3,389 		"/>
		<path class="st0" d="M185.8,190.6c0,0,27.9-4,47.7-29.9l-9.7,32.2c0,0,20.2-6.3,36.1-28.9c0,0,7.2,27.5-20.2,38
			c-15.9,6.1-57.8,0-57.8,0L185.8,190.6z"/>
	</g>
	<g>
		<path class="st8" d="M204.7,571.1l0.1-20.3l-39.6,8.9c-7.4-0.6-15.4-1-23.9-1c-8.5,0-16.6,0.4-24.1,1l-39.7-8.9l0.1,21.2
			c0,7.3,28.5,13.3,63.6,13.3c35.2,0,63.6-6,63.6-13.3C204.9,571.6,204.8,571.3,204.7,571.1z"/>
		<ellipse class="st9" cx="141.3" cy="550.9" rx="63.6" ry="13.3"/>
	</g>
	<g>
		<path class="st8" d="M166.9,546.1c0,0,0-0.1,0.1-0.1c-0.4-0.1-0.8-0.2-1.2-0.3l0,0c0-0.1,0-0.1,0-0.2c0-0.1,0-0.1,0-0.2
			c0-0.1,0-0.1,0-0.2c0-0.1,0-0.1,0-0.2c0-0.1,0-0.1,0-0.2c0-0.1,0-0.1,0-0.2c0-0.1,0-0.1,0-0.2c0-0.1,0-0.1,0-0.2
			c0-0.1,0-0.1,0-0.2c0-0.1,0-0.1,0-0.2c0-0.1,0-0.1,0-0.2c0-0.1,0-0.1,0-0.2c0-0.1,0-0.1,0-0.2c0-0.1,0-0.1,0-0.2
			c0-0.1,0-0.1,0-0.2c0-0.1,0-0.1,0-0.2c0-0.1,0-0.1,0-0.2c0-0.1,0-0.1,0-0.2c0-0.1,0-0.1,0-0.2c0-0.1,0-0.1,0-0.2
			c0-0.1,0-0.1,0-0.2c0-0.1,0-0.1,0-0.2c0-0.1,0-0.1,0-0.2c0-0.1,0-0.1,0-0.2c0-0.1,0-0.1,0-0.2c0-0.1,0-0.1,0-0.2
			c0-0.1,0-0.1,0-0.2c0-0.1,0-0.1,0-0.2c0-0.1,0-0.1,0-0.2c0-0.1,0-0.1,0-0.2c0-0.1,0-0.1,0-0.2c0-0.1,0-0.1,0-0.2
			c0-0.1,0-0.1,0-0.2c0-0.1,0-0.1,0-0.2c0-0.1,0-0.1,0-0.2c0-0.1,0-0.1,0-0.2c0-0.1,0-0.1,0-0.2c0.4-2-4.4-3.9-11.2-4
			c-2.2,0-4.6,0.2-7.1,0.3c0,0,0,0,0,0c0-0.1,0-0.1,0-0.2c0-0.1,0-0.1,0-0.2c0-0.1,0-0.1,0-0.2c0-0.1,0-0.1,0-0.2c0-0.1,0-0.1,0-0.2
			c0-0.1,0-0.1,0-0.2c0-0.1,0-0.1,0-0.2c0-0.1,0-0.1,0-0.2c0-0.9-1-1.8-3.5-2.4c-3.1-0.8-6.6-1-10.2-0.5c-2.6,0.4-5,0.9-7.3,1.5
			c-1.2,0.3-2,0.4-3.1,0c-1.6-0.5-3.4-0.9-5-1.4c-1.1-0.3-2-0.4-3,0c-0.7,0.3-1.9,0.5-1.7,0.9c0,0,0,0.1,0,0.2c0,0,0,0.1,0,0.2
			c0,0,0,0.1,0,0.2c0,0,0,0.1,0,0.2c0,0,0,0.1,0,0.2c0,0,0,0.1,0,0.2c0,0,0,0.1,0,0.2c0,0,0,0.1,0,0.2c0,0,0,0.1,0,0.2
			c0,0,0,0.1,0,0.2c0,0,0,0.1,0,0.2c0,0,0,0.1,0,0.2c0,0,0,0.1,0,0.2c0,0,0,0.1,0,0.2c0,0,0,0.1,0,0.2c0,0,0,0.1,0,0.2
			c0,0,0,0.1,0,0.2c0,0,0,0.1,0,0.1c-1-0.3-2.1-0.6-3-0.9c-1.1-0.3-2.1-0.5-3.2,0c-0.7,0.3-1.9,0.5-1.7,0.9c0,0,0,0.1,0,0.2
			c0,0,0,0.1,0,0.2c0,0,0,0.1,0,0.2c0,0,0,0.1,0,0.2c0,0,0,0.1,0,0.2c0,0,0,0.1,0,0.2c0,0,0,0.1,0,0.2c0,0,0,0.1,0,0.2
			c0,0,0,0.1,0,0.2c0,0,0,0.1,0,0.2c0,0,0,0.1,0,0.2c0,0,0,0.1,0,0.2c0,0,0,0.1,0,0.2c0,0,0,0.1,0,0.2c0,0,0,0.1,0,0.2
			c0,0,0,0.1,0,0.2c0,0,0,0.1,0,0.2c0,0,0,0.1,0,0.2c0,0,0,0.1,0,0.2c0,0,0,0.1,0,0.2c0,0,0,0.1,0,0.2c0,0,0,0.1,0,0.2
			c0,0,0,0.1,0,0.2c0,0,0,0.1,0,0.2c0,0,0,0.1,0,0.2c0,0,0,0.1,0,0.2c0,0,0,0.1,0,0.2c0,0,0,0.1,0,0.2c0,0,0,0.1,0,0.2
			c0,0,0,0.1,0,0.2c0,0,0,0.1,0,0.2c0,0,0,0.1,0,0.2c0,0,0,0,0,0.1c0,0,0,0.1,0,0.1c0,0,0,0,0,0c0,0,0,0.1,0,0.1c0,0,0,0,0,0
			c0,0,0,0.1,0,0.1c0,0,0,0,0,0c0,0,0,0.1,0,0.1c0,0,0,0,0,0c0,0,0,0.1,0,0.1c0,0,0,0,0,0c0,0,0,0.1,0,0.1c0,0,0,0,0,0
			c0,0,0,0.1,0,0.1c0,0,0,0,0,0c0,0,0,0.1,0,0.1c0,0,0,0,0,0c0,0,0,0.1,0,0.1c0,0,0,0,0,0c0,0,0,0.1,0,0.1c0,0,0,0,0,0
			c0,0,0,0.1,0,0.1c0,0,0,0,0,0c0,0,0,0.1,0,0.1c0,0,0,0,0,0c0,0,0,0.1,0,0.1c0,0,0,0,0,0c0,0,0,0.1,0,0.1c0,0,0,0,0,0
			c0,0,0,0.1,0,0.1c0,0,0,0,0,0c0,0,0,0.1,0,0.1c0,0,0,0,0,0c0,0,0,0.1,0,0.1c0,0,0,0,0,0c0,0,0,0.1,0,0.1c0,0,0,0,0,0
			c0,0,0,0.1,0,0.1c0,0,0,0,0,0c0,0,0,0.1,0,0.1c0,0,0,0,0,0c0,0,0,0.1,0,0.1c0,0,0,0,0,0c0,0,0,0.1,0,0.1c0,0,0,0,0,0
			c0,0,0,0.1,0,0.1c0,0,0,0,0,0c0,0,0,0.1,0,0.1c0,0,0,0,0,0c0,0,0,0.1,0,0.1c0,0,0,0,0,0c0,0,0,0.1,0,0.1c0,0.1,0,0.1,0,0.2
			c0,0.1,0,0.1,0,0.2c0,0.1,0,0.1,0,0.2c0,0.1,0,0.1,0,0.2c0,0.1,0,0.1,0,0.2c0,0.1,0,0.1,0,0.2c0,0.1,0,0.1,0,0.2
			c0,0.1,0,0.1,0,0.2c0,0.1,0,0.1,0,0.2c0,0.1,0,0.1,0,0.2c0,0.1,0,0.1,0,0.2c0,0.1,0,0.1,0,0.2c0,0.1,0,0.1,0,0.2
			c0,0.1,0,0.1,0,0.2c0,0.1,0,0.1,0,0.2c0,0.1,0,0.1,0,0.2c0,0.1,0,0.1,0,0.2c0,0.1,0,0.1,0,0.2c0,0.1,0,0.1,0,0.2
			c0,0.1,0,0.1,0,0.2c0,0.1,0,0.1,0,0.2c0,0.1,0,0.1,0,0.2c0,0.1,0,0.1,0,0.2c0,0.1,0,0.1,0,0.2c0,0.1,0,0.1,0,0.2
			c0,0.1,0,0.1,0,0.2c0,0.1,0,0.1,0,0.2c0,0.1,0,0.1,0,0.2c0,0.1,0,0.1,0,0.2c0,0.1,0,0.1,0,0.2c0,0.1,0,0.1,0,0.2
			c0,0.1,0,0.1,0,0.2c-0.1,0.2,0.2,0.4,1,0.7c2.7,0.8,2.6,0.8,5.1,0c0.4-0.1,0.9-0.3,1.3-0.4c1.2-0.4,2.2-0.4,3.5,0
			c6,1.7,12.1,3.4,18.1,5.1c0,0,0,0.1,0,0.1c0,0.1,0,0.1,0,0.2c0,0.1,0,0.1,0,0.2c0,0.1,0,0.1,0,0.2c0,0.1,0,0.1,0,0.2
			c0,0.1,0,0.1,0,0.2c0,0.1,0,0.1,0,0.2c0,0.1,0,0.1,0,0.2c0,0.1,0,0.1,0,0.2c0,0.1,0,0.1,0,0.2c0,0.1,0,0.1,0,0.2
			c0,0.1,0,0.1,0,0.2c0,0.1,0,0.1,0,0.2c0,0.1,0,0.1,0,0.2c0,0.1,0,0.1,0,0.2c0,0.1,0,0.1,0,0.2c0,0.1,0,0.1,0,0.2
			c0,0.1,0,0.1,0,0.2c0,0.1,0,0.1,0,0.2c-0.2,0.3,0.5,0.5,2.3,1c0.1,0,0.1,0,0.2,0c1,0.4,1.9,0.3,2.8-0.1c1.8-0.6,3.8-1.2,5.7-1.8
			c1.1-0.4,2-0.4,3.1,0c1.3,0.4,2.6,0.8,3.9,1.1c2.8,0.8,3.1,0.8,5.5-0.1c0.3-0.1,0.5-0.2,0.7-0.3c-0.1,0-0.1-0.1-0.2-0.1
			c0,0,0.1,0,0.2-0.1c-0.1,0-0.1-0.1-0.2-0.1c0,0,0.1,0,0.2-0.1c-0.1,0-0.1-0.1-0.2-0.1c0,0,0.1,0,0.2-0.1c-0.1,0-0.1-0.1-0.2-0.1
			c0,0,0.1,0,0.2-0.1c-0.1,0-0.1-0.1-0.2-0.1c0,0,0.1,0,0.2-0.1c-0.1,0-0.1-0.1-0.2-0.1c0,0,0.1,0,0.2-0.1c-0.1,0-0.1-0.1-0.2-0.1
			c0,0,0.1,0,0.2-0.1c-0.1,0-0.1-0.1-0.2-0.1c0,0,0.1,0,0.2-0.1c-0.1,0-0.1-0.1-0.2-0.1c0,0,0.1,0,0.2-0.1c-0.1,0-0.1-0.1-0.2-0.1
			c0,0,0.1,0,0.2-0.1c-0.1,0-0.1-0.1-0.2-0.1c0,0,0.1,0,0.2-0.1c-0.1,0-0.1-0.1-0.2-0.1c0,0,0.1,0,0.2-0.1c-0.1,0-0.1-0.1-0.2-0.1
			c0,0,0.1,0,0.2-0.1c-0.1,0-0.1-0.1-0.2-0.1c0,0,0.1,0,0.2-0.1c-0.1,0-0.1-0.1-0.2-0.1c0,0,0.1,0,0.2-0.1c-0.1,0-0.1-0.1-0.2-0.1
			c0,0,0.1,0,0.2-0.1c-0.1,0-0.1-0.1-0.2-0.1c0,0,0.1,0,0.2-0.1c-0.1,0-0.1-0.1-0.2-0.1l0,0c0.6,0.2,1.1,0.3,1.7,0.5
			c3.3,0.9,3.7,0.9,6.3-0.3c0.1,0,0.1-0.1,0.2-0.2c0,0-0.1,0-0.1,0c0,0,0-0.1,0.1-0.1c0,0-0.1,0-0.1,0c0,0,0-0.1,0.1-0.1
			c0,0-0.1,0-0.1,0c0,0,0-0.1,0.1-0.1c0,0-0.1,0-0.1,0c0,0,0-0.1,0.1-0.1c0,0-0.1,0-0.1,0c0,0,0-0.1,0.1-0.1c0,0-0.1,0-0.1,0
			c0,0,0-0.1,0.1-0.1c0,0-0.1,0-0.1,0c0,0,0-0.1,0.1-0.1c0,0-0.1,0-0.1,0c0,0,0-0.1,0.1-0.1c0,0-0.1,0-0.1,0c0,0,0-0.1,0.1-0.1
			c0,0-0.1,0-0.1,0c0,0,0-0.1,0.1-0.1c0,0-0.1,0-0.1,0c0,0,0-0.1,0.1-0.1c0,0-0.1,0-0.1,0c0,0,0-0.1,0.1-0.1c0,0-0.1,0-0.1,0
			c0,0,0-0.1,0.1-0.1c0,0-0.1,0-0.1,0c0,0,0-0.1,0.1-0.1c0,0-0.1,0-0.1,0c0,0,0-0.1,0.1-0.1c0,0-0.1,0-0.1,0c0,0,0-0.1,0.1-0.1
			c0,0-0.1,0-0.1,0c0,0,0-0.1,0.1-0.1c0,0-0.1,0-0.1,0c0,0,0-0.1,0.1-0.1c0,0-0.1,0-0.1,0c0,0,0-0.1,0.1-0.1c0,0-0.1,0-0.1,0
			c0,0,0-0.1,0.1-0.1c0,0-0.1,0-0.1,0c0,0,0-0.1,0.1-0.1c0,0-0.1,0-0.1,0c0,0,0-0.1,0.1-0.1c0,0-0.1,0-0.1,0c0,0,0-0.1,0.1-0.1
			c0,0-0.1,0-0.1,0c0,0,0-0.1,0.1-0.1c0,0-0.1,0-0.1,0c0,0,0-0.1,0.1-0.1c0,0-0.1,0-0.1,0c0,0,0-0.1,0.1-0.1c0,0-0.1,0-0.1,0
			c0,0,0-0.1,0.1-0.1c0,0-0.1,0-0.1,0c0,0,0-0.1,0.1-0.1c0,0-0.1,0-0.1,0c0,0,0-0.1,0.1-0.1c0,0-0.1,0-0.1,0c0,0,0-0.1,0.1-0.1
			c0,0-0.1,0-0.1,0c0,0,0-0.1,0.1-0.1c0,0-0.1,0-0.1,0c0,0,0-0.1,0.1-0.1c0,0-0.1,0-0.1,0c0,0,0-0.1,0.1-0.1c0,0-0.1,0-0.1,0
			c0,0,0-0.1,0.1-0.1c0,0-0.1,0-0.1,0c0,0,0-0.1,0.1-0.1c0,0-0.1,0-0.1,0c0,0,0-0.1,0.1-0.1c0,0-0.1,0-0.1,0c0,0,0-0.1,0.1-0.1
			c0,0-0.1,0-0.1,0c0,0,0-0.1,0.1-0.1c0,0-0.1,0-0.1,0c0,0,0-0.1,0.1-0.1c0,0-0.1,0-0.1,0c0,0,0-0.1,0.1-0.1c0,0-0.1,0-0.1,0
			c0,0,0-0.1,0.1-0.1c0,0-0.1,0-0.1,0c0,0,0-0.1,0.1-0.1c0,0-0.1,0-0.1,0c0,0,0-0.1,0.1-0.1c0,0-0.1,0-0.1,0c0,0,0-0.1,0.1-0.1
			c0,0-0.1,0-0.1,0c0,0,0-0.1,0.1-0.1c0,0-0.1,0-0.1,0c0,0,0-0.1,0.1-0.1c0,0-0.1,0-0.1,0c0,0,0-0.1,0.1-0.1c0,0-0.1,0-0.1,0
			c0,0,0-0.1,0.1-0.1c0,0-0.1,0-0.1,0c0,0,0-0.1,0.1-0.1c0,0-0.1,0-0.1,0c0,0,0-0.1,0.1-0.1c0,0-0.1,0-0.1,0c0,0,0-0.1,0.1-0.1
			c0,0-0.1,0-0.1,0c0,0,0-0.1,0.1-0.1c0,0-0.1,0-0.1,0c0,0,0-0.1,0.1-0.1c0,0-0.1,0-0.1,0c0,0,0-0.1,0.1-0.1c0,0-0.1,0-0.1,0
			c0,0,0-0.1,0.1-0.1c0,0-0.1,0-0.1,0c0,0,0-0.1,0.1-0.1c0,0-0.1,0-0.1,0c0,0,0-0.1,0.1-0.1C166.9,546.2,166.9,546.1,166.9,546.1z"
			/>
		<g>
			<path class="st10" d="M147,536.3c2.7-0.1,5.2-0.4,7.6-0.4c8.3,0.1,13.6,3,10.1,5.3c-1.1,0.7-2.6,1.4-4.2,2.1
				c-1,0.4-0.8,0.6,0.3,0.9c2.2,0.6,4.2,1.2,6.2,1.8c-0.1,0.1-0.1,0.2-0.2,0.2c-2.5,1.2-2.9,1.2-6.3,0.3c-1.4-0.4-2.7-0.7-4-1.1
				c-0.9-0.3-1.8-0.3-2.6,0c-0.4,0.1-0.7,0.3-1.1,0.4c-1.8,0.4-1.2,0.8,0.2,1.2c1.9,0.5,3.7,1,5.5,1.6c0.2,0,0.2,0.1,0.4,0.2
				c-0.2,0.1-0.5,0.2-0.7,0.3c-2.4,1-2.7,1-5.5,0.1c-1.3-0.4-2.6-0.8-3.9-1.1c-1.1-0.4-2-0.3-3.1,0c-1.8,0.6-3.9,1.2-5.7,1.8
				c-1,0.3-1.8,0.4-2.8,0.1c0,0-0.1,0-0.2,0c-3.1-0.8-3.1-0.8-0.4-1.8c2.5-0.8,2.5-0.8-0.2-1.6c-6.6-1.9-13.3-3.7-19.9-5.6
				c-1.3-0.4-2.4-0.4-3.5,0c-0.4,0.1-0.9,0.3-1.3,0.4c-2.5,0.8-2.4,0.8-5.1,0c-1.5-0.4-1.4-0.8,0-1.2c1.9-0.6,3.5-1.2,5.3-1.7
				c0.9-0.3,0.9-0.5-0.1-0.8c-1.8-0.5-3.5-1-5.3-1.5c-2.2-0.6-0.2-0.9,0.7-1.3c1.2-0.5,2.1-0.3,3.2,0c1.6,0.5,3.4,0.9,5,1.4
				c1,0.3,1.9,0.3,2.8,0c0.4-0.1,0.8-0.3,1.2-0.4c1.4-0.4,1.1-0.7-0.1-1c-1.7-0.5-3.3-0.9-5-1.4c-2-0.6,0-0.9,0.9-1.2
				c1-0.4,1.9-0.3,3,0c1.6,0.5,3.4,0.9,5,1.4c1.2,0.4,1.9,0.3,3.1,0c2.3-0.6,4.7-1.1,7.3-1.5c3.6-0.5,7.2-0.3,10.3,0.5
				c3.2,0.9,4,2,3.3,3.2C147.2,536,147.1,536.2,147,536.3z M138.2,538.8c1.4-1,0.9-2.1-1.3-2.7c-2.5-0.7-5.7-0.8-8.2-0.2
				c-1.9,0.5-3.5,1-5.1,1.6c-0.4,0.2-0.3,0.6,0.2,0.8c2.4,0.7,4.9,1.4,7.5,2.1c0.5,0.1,2.1,0.1,2.6,0
				C135.4,539.8,136.7,539.3,138.2,538.8z M151.4,543.2c2.2-1.3,1.8-2.3-0.8-3c-2.6-0.7-5.7-0.7-8.8,0c-1.6,0.4-2.9,0.9-4.3,1.3
				c-0.8,0.3-0.9,0.6,0.1,0.9c2.5,0.7,5,1.4,7.4,2.1c0.9,0.3,1.8,0.3,2.6,0C149.2,544,150.7,543.4,151.4,543.2z"/>
		</g>
	</g>
</g>
</svg>
