<?xml version="1.0" encoding="utf-8"?>
<!-- Generator: Adobe Illustrator 19.2.0, SVG Export Plug-In . SVG Version: 6.00 Build 0)  -->
<svg version="1.1" id="Layer_1" xmlns="http://www.w3.org/2000/svg" xmlns:xlink="http://www.w3.org/1999/xlink" x="0px" y="0px"
	 viewBox="0 0 454.8 585.2" style="enable-background:new 0 0 454.8 585.2;" xml:space="preserve">
<style type="text/css">
	.st0{fill:#79410D;}
	.st1{fill:#462507;}
	.st2{opacity:0.2;}
	.st3{fill:#8C4C0F;}
	.st4{fill:#67370C;}
	.st5{fill:#CD9973;}
	.st6{fill:#FAF9F9;}
	.st7{fill:#E9D59C;}
	.black{fill:#0A1C21}
</style>
<g>
	<path class="st0" d="M97.3,231.3l0.4,39.6l-39.6,0.4c-21.6,0.2-39.4-17.1-39.6-38.7l-0.4-33.3c0-3.5,2.7-6.3,6.2-6.3l33.3-0.4
		C79.4,192.4,97.1,209.7,97.3,231.3z"/>
	<path class="st1" d="M82.8,231.6l0.3,25l-25,0.3c-13.7,0.1-24.8-10.8-25-24.5l-0.2-21c0-2.2,1.7-4,3.9-4l21-0.2
		C71.5,207,82.7,217.9,82.8,231.6z"/>
	<path class="st0" d="M356.1,231.3l-0.4,39.6l39.6,0.4c21.6,0.2,39.4-17.1,39.6-38.7l0.4-33.3c0-3.5-2.7-6.3-6.2-6.3l-33.3-0.4
		C374,192.4,356.3,209.7,356.1,231.3z"/>
	<path class="st1" d="M369.5,231.6l-0.3,25l25,0.3c13.7,0.1,24.8-10.8,25-24.5l0.2-21c0-2.2-1.7-4-3.9-4l-21-0.2
		C380.8,207,369.6,217.9,369.5,231.6z"/>
	<ellipse class="st2" cx="220.2" cy="553.8" rx="207.1" ry="31.4"/>
	<path class="st0" d="M219.2,542.9l8,2.6c74.6,0,135.4-56.2,135.4-130.8V293.2c0-74.6-60.5-135.1-135.1-135.1l0,0
		c-74.6,0-135.1,60.5-135.1,135.1v121.4C92.3,489.3,144.5,542.9,219.2,542.9z"/>
	<ellipse class="st3" cx="227.3" cy="178.7" rx="52.2" ry="20.1"/>
	<path class="st0" d="M320,548.6H134.1C69.4,548.6,17,496.2,17,431.6v0c0-64.7,52.4-117.1,117.1-117.1H320
		c64.7,0,117.1,52.4,117.1,117.1v0C437.1,496.2,384.7,548.6,320,548.6z"/>
	<path class="st3" d="M306.6,491.2H147.5c-45.7,0-82.7-37-82.7-82.7v-3.6c0-45.7,37-82.7,82.7-82.7h159.2c45.7,0,82.7,37,82.7,82.7
		v3.6C389.3,454.2,352.3,491.2,306.6,491.2z"/>
	<path class="st4" d="M233.8,410l-13.7,0c-22,0-39.9,17.8-39.9,39.8l0,27.4c0,22,17.8,39.9,39.8,39.9l13.7,0
		c22,0,39.9-17.8,39.9-39.8l0-27.4C273.6,427.9,255.8,410.1,233.8,410z"/>
	<ellipse class="st5" cx="225.7" cy="466.6" rx="41.4" ry="32.9"/>
	<circle class="st4" cx="269.5" cy="347.1" r="46.1"/>
	<circle class="st4" cx="181.2" cy="347.1" r="46.1"/>
	<circle class="st6" cx="181" cy="332.2" r="46.1"/>
	<circle class='black' cx="179.8" cy="332.2" r="27.8"/>
	<circle class="st6" cx="197.6" cy="314.4" r="10"/>
	<circle class="st6" cx="269.5" cy="332.2" r="46.1"/>
	<circle class='black' cx="270.6" cy="332.2" r="27.8"/>
	<circle class="st6" cx="288.4" cy="314.4" r="10"/>
	<path class='black' d="M186.7,267.6l-36.6,0c-10.9,0-19.7-8.8-19.7-19.7l0,0c0-10.9,8.8-19.7,19.7-19.7l36.6,0c10.9,0,19.7,8.8,19.7,19.7l0,0
		C206.5,258.7,197.6,267.6,186.7,267.6z"/>
	<path class='black' d="M292.2,267.4l-36.6,0c-10.9,0-19.7-8.8-19.7-19.7l0,0c0-10.9,8.8-19.7,19.7-19.7l36.6,0c10.9,0,19.7,8.8,19.7,19.7l0,0
		C311.9,258.5,303.1,267.4,292.2,267.4z"/>
	<path class="st5" d="M183.2,464c6,4.6,10.9,6,17.8,4.9c8.6-1.4,16.9-4.5,25.6-5.3c8.3-0.8,16.5,1.3,24.6,2.7
		c6,1.1,9.9,1.4,14.5-3.4c5.6-5.8,12.8-4.4,17.3-0.1c25.4-32.9,18.7-79.4-19.9-105.1c-11.8-7.8-24.4-12.3-37.5-12.3
		c-13.1,0-25.7,4.5-37.5,12.3c-39.3,26.2-45.5,73.9-18.5,106.8C173.6,461.8,179.2,461,183.2,464z"/>
	<path class="st6" d="M244.7,481.8h-35.5c-5.1,0-9.2-4.1-9.2-9.2v-26.7c0-5.1,4.1-9.2,9.2-9.2h35.5c5.1,0,9.2,4.1,9.2,9.2v26.7
		C254,477.7,249.8,481.8,244.7,481.8z"/>
	<g>
		<path class="st7" d="M121,86.6V20.8c0-10.8-8.8-19.6-19.6-19.6S81.7,9.9,81.7,20.8v65.6h-8.6c-18.6,0-33.8-15.2-33.8-33.8V21.8
			c0-10.8-8.8-19.6-19.6-19.6S0,11,0,21.8v30.7c0,40.3,32.8,73.1,73.1,73.1h41.8c18.6,0,33.8,15.2,33.8,33.8v19.5
			c0,10.8,8.8,19.6,19.6,19.6c10.8,0,19.6-8.8,19.6-19.6v-19.5C188,121.2,158.4,89.8,121,86.6z"/>
		<path class="st7" d="M435.2,1.1c-10.8,0-19.6,8.8-19.6,19.6v30.7c0,18.6-15.2,33.8-33.8,33.8h-8.6V19.6c0-10.8-8.8-19.6-19.6-19.6
			c-10.8,0-19.6,8.8-19.6,19.6v65.9c-37.4,3.1-67,34.6-67,72.8v19.5c0,10.8,8.8,19.6,19.6,19.6s19.6-8.8,19.6-19.6v-19.5
			c0-18.6,15.2-33.8,33.8-33.8h41.8c40.3,0,73.1-32.8,73.1-73.1V20.7C454.8,9.8,446,1.1,435.2,1.1z"/>
	</g>
	<ellipse class="st5" cx="196.4" cy="436" rx="35.3" ry="31.7"/>
	<ellipse class="st5" cx="254.8" cy="436" rx="35.3" ry="31.7"/>
	<path class='black' d="M186,412.9c0,14.2,17.7,42.6,39.6,42.6c21.9,0,39.6-28.4,39.6-42.6s-17.7-25.6-39.6-25.6C203.7,387.3,186,398.7,186,412.9z
		"/>
	<g>
		<path class='black' d="M196.6,474.2c-8.5,0-17.8-2.7-27.3-9.9c-2.8-2.1-3.3-6.1-1.2-8.8c2.1-2.8,6.1-3.3,8.8-1.2c23.3,17.8,42-2.2,42.8-3
			c2.4-2.6,6.3-2.7,8.9-0.4c2.6,2.4,2.7,6.3,0.4,8.9C223.2,466.2,211.2,474.2,196.6,474.2z"/>
	</g>
	<g>
		<path class='black' d="M254,474.2c-8.5,0-17.8-2.7-27.3-9.9c-2.8-2.1-3.3-6.1-1.2-8.8c2.1-2.8,6.1-3.3,8.8-1.2c23.3,17.8,42-2.2,42.8-3
			c2.4-2.6,6.3-2.7,8.9-0.4c2.6,2.4,2.7,6.3,0.4,8.9C280.6,466.2,268.6,474.2,254,474.2z"/>
	</g>
	<ellipse class="st6" cx="234.7" cy="409.2" rx="6.2" ry="3.6"/>
	<polygon class="st0" points="378.3,361.7 340.1,344.9 382.9,392.3 347.7,379.3 390.6,427.5 398.2,391.6 	"/>
	<polygon class="st0" points="76.1,361.7 114.3,344.9 71.5,392.3 106.7,379.3 63.8,427.5 56.2,391.6 	"/>
	<path class="st0" d="M185.5,191.9c0,0,28.1-4.1,48-30.1l-9.8,32.4c0,0,20.3-6.4,36.4-29.1c0,0,7.2,27.7-20.3,38.3
		c-16.1,6.2-58.2,0-58.2,0L185.5,191.9z"/>
</g>
</svg>
