<svg width="2208" height="2208" viewBox="0 0 2208 2208" fill="none" xmlns="http://www.w3.org/2000/svg">
<g clip-path="url(#clip0)">
<rect width="2208" height="2208" fill="#9C9F02"/>
<path d="M1102.15 1821C1037.98 1821 972.445 1821 905.544 1821C840.008 1821 774.472 1821 708.936 1821C704.84 1821 700.744 1820.32 696.648 1818.95C693.917 1816.22 691.187 1813.49 688.456 1810.76C687.091 1808.03 686.408 1803.93 686.408 1798.47C686.408 1689.25 686.408 1581.38 686.408 1474.89C686.408 1368.39 686.408 1262.58 686.408 1157.45C686.408 1050.95 686.408 944.456 686.408 837.96C686.408 730.099 686.408 622.237 686.408 514.376H1122.63L1102.15 557.384C1102.15 621.555 1102.15 685.043 1102.15 747.848C1102.15 810.653 1102.15 873.459 1102.15 936.264C1102.15 1012.72 1102.15 1088.5 1102.15 1163.59C1102.15 1237.32 1102.15 1312.41 1102.15 1388.87C1102.15 1463.97 1102.15 1541.11 1102.15 1620.3C1102.15 1657.16 1102.15 1692.66 1102.15 1726.79C1102.15 1760.93 1102.15 1792.33 1102.15 1821ZM588.104 387.4H1562.95C1568.41 387.4 1572.51 388.765 1575.24 391.496C1577.97 392.861 1580.02 394.909 1581.38 397.64C1584.11 400.371 1585.48 404.467 1585.48 409.928C1585.48 441.331 1585.48 478.877 1585.48 522.568C1585.48 566.259 1585.48 609.949 1585.48 653.64C1585.48 697.331 1585.48 734.877 1585.48 766.28H610.632C606.536 766.28 602.44 765.597 598.344 764.232C595.613 761.501 592.883 758.771 590.152 756.04C588.787 751.944 588.104 747.848 588.104 743.752C588.104 682.312 588.104 622.92 588.104 565.576C588.104 506.867 588.104 447.475 588.104 387.4ZM899.4 1007.94H1460.55C1467.38 1007.94 1472.84 1009.99 1476.94 1014.09C1481.03 1018.18 1483.08 1023.65 1483.08 1030.47C1483.08 1061.87 1483.08 1098.74 1483.08 1141.06C1483.08 1183.39 1483.08 1225.71 1483.08 1268.04C1483.08 1309 1483.08 1344.5 1483.08 1374.54H899.4V1007.94Z" fill="#FCFCFD"/>
</g>
<defs>
<clipPath id="clip0">
<rect width="2208" height="2208" fill="white"/>
</clipPath>
</defs>
</svg>
